<?xml version="1.0" encoding="utf-8"?>
<!-- Generator: Adobe Illustrator 19.2.0, SVG Export Plug-In . SVG Version: 6.00 Build 0)  -->
<svg version="1.1" id="Layer_1" xmlns="http://www.w3.org/2000/svg" xmlns:xlink="http://www.w3.org/1999/xlink" x="0px" y="0px"
	 viewBox="0 0 40 40" style="enable-background:new 0 0 40 40;" xml:space="preserve">
<style type="text/css">
	.st0{fill:#948569;}
</style>
<path class="st0" d="M34.1,5.8C30.4,2.1,25.4,0,20.1,0C9.2,0,0.3,8.9,0.3,19.8c0,3.5,0.9,6.9,2.6,9.9L0.1,40l10.5-2.8
	c2.9,1.6,6.2,2.4,9.5,2.4l0,0c10.9,0,19.8-8.9,19.8-19.8C39.9,14.5,37.8,9.6,34.1,5.8z M20.1,36.3L20.1,36.3c-3,0-5.9-0.8-8.4-2.3
	l-0.6-0.4l-6.2,1.6l1.7-6.1l-0.4-0.6c-1.6-2.6-2.5-5.6-2.5-8.8c0-9.1,7.4-16.5,16.5-16.5c4.4,0,8.5,1.7,11.6,4.8s4.8,7.3,4.8,11.7
	C36.5,28.9,29.2,36.3,20.1,36.3z M29.1,24c-0.5-0.3-2.9-1.4-3.4-1.6s-0.8-0.3-1.1,0.3c-0.3,0.5-1.3,1.6-1.6,1.9
	c-0.3,0.3-0.6,0.4-1.1,0.1s-2.1-0.8-4-2.5c-1.5-1.3-2.5-2.9-2.8-3.4s0-0.7,0.2-1c0.5-0.7,1.1-1.4,1.2-1.7c0.2-0.3,0.1-0.6,0-0.9
	c-0.1-0.3-1.1-2.7-1.5-3.7s-0.8-0.8-1.1-0.9c-0.3,0-0.6,0-1,0s-0.9,0.1-1.3,0.6C11.3,11.8,10,13,10,15.4s1.8,4.8,2,5.1
	c0.3,0.3,3.5,5.3,8.5,7.5c1.2,0.5,2.1,0.8,2.8,1c1.2,0.4,2.3,0.3,3.1,0.2c1-0.1,2.9-1.2,3.3-2.4c0.4-1.2,0.4-2.1,0.3-2.4
	C29.9,24.3,29.6,24.2,29.1,24z"/>
</svg>
