<?xml version="1.0" encoding="utf-8"?>
<!-- Generator: Adobe Illustrator 19.2.0, SVG Export Plug-In . SVG Version: 6.00 Build 0)  -->
<svg version="1.1" id="Bold" xmlns="http://www.w3.org/2000/svg" xmlns:xlink="http://www.w3.org/1999/xlink" x="0px" y="0px"
	 viewBox="0 0 40 40" style="enable-background:new 0 0 40 40;" xml:space="preserve">
<style type="text/css">
	.st0{fill:#FFFFFF;}
</style>
<path class="st0" d="M28.9,11.6H32V6.3C31.4,6.2,29.6,6,27.4,6c-4.5,0-7.6,2.8-7.6,8v4.8H15v6h4.9V40h6V24.8h4.8l0.8-6H26v-4.2
	C25.9,12.8,26.4,11.6,28.9,11.6L28.9,11.6z"/>
<g>
	<path class="st0" d="M35.1,3.1c1,0,1.8,0.8,1.8,1.8v30.2c0,1-0.8,1.8-1.8,1.8H4.9c-1,0-1.8-0.8-1.8-1.8V4.9c0-1,0.8-1.8,1.8-1.8
		H35.1 M35.7,0H4.3C1.9,0,0,1.9,0,4.3v31.4C0,38.1,1.9,40,4.3,40h31.4c2.4,0,4.3-1.9,4.3-4.3V4.3C40,1.9,38.1,0,35.7,0L35.7,0z"/>
</g>
</svg>
