<?xml version="1.0" encoding="utf-8"?>
<!-- Generator: Adobe Illustrator 19.2.0, SVG Export Plug-In . SVG Version: 6.00 Build 0)  -->
<svg version="1.1" id="Layer_1" xmlns="http://www.w3.org/2000/svg" xmlns:xlink="http://www.w3.org/1999/xlink" x="0px" y="0px"
	 viewBox="0 0 40 40" style="enable-background:new 0 0 40 40;" xml:space="preserve">
<style type="text/css">
	.st0{fill:#948569;}
</style>
<g>
	<path class="st0" d="M39.9,11.8c-0.1-2.1-0.4-3.6-0.9-4.9s-1.3-2.5-2.3-3.5s-2.2-1.8-3.5-2.3s-2.7-0.8-4.9-0.9C26.1,0,25.4,0,20,0
		s-6.1,0-8.2,0.1S8.2,0.6,6.9,1C5.6,1.6,4.4,2.3,3.4,3.4c-1,1-1.8,2.2-2.3,3.5s-0.8,2.7-0.9,4.9C0,13.9,0,14.6,0,20s0,6.1,0.1,8.2
		s0.4,3.6,0.9,4.9s1.3,2.5,2.3,3.5s2.2,1.8,3.5,2.3s2.7,0.8,4.9,0.9S14.6,40,20,40s6.1,0,8.2-0.1s3.6-0.4,4.9-0.9
		c2.7-1,4.8-3.2,5.9-5.9c0.5-1.3,0.8-2.7,0.9-4.9C40,26.1,40,25.4,40,20S40,13.9,39.9,11.8z M36.3,28.1c-0.1,2-0.4,3-0.7,3.7
		c-0.7,1.7-2.1,3.1-3.8,3.8c-0.7,0.3-1.8,0.6-3.7,0.7c-2.1,0.1-2.7,0.1-8.1,0.1s-6,0-8.1-0.1c-2-0.1-3-0.4-3.7-0.7
		c-0.9-0.3-1.7-0.8-2.3-1.5c-0.7-0.6-1.2-1.4-1.5-2.3c-0.3-0.7-0.6-1.8-0.7-3.7c0-2.1-0.1-2.7-0.1-8.1s0-6,0.1-8.1
		c0.1-2,0.4-3,0.7-3.7c0.3-0.9,0.8-1.7,1.5-2.3c0.6-0.7,1.4-1.2,2.3-1.5c0.7-0.3,1.8-0.6,3.7-0.7C14,3.6,14.6,3.6,20,3.6
		c5.3,0,6,0,8.1,0.1c2,0.1,3,0.4,3.7,0.7c0.9,0.3,1.7,0.8,2.3,1.5c0.7,0.6,1.2,1.4,1.5,2.3c0.3,0.7,0.6,1.8,0.7,3.7
		c0.1,2.1,0.1,2.7,0.1,8.1S36.4,26,36.3,28.1z"/>
	<path class="st0" d="M20,9.7C14.3,9.7,9.7,14.3,9.7,20S14.3,30.3,20,30.3S30.3,25.7,30.3,20S25.7,9.7,20,9.7z M20,26.7
		c-3.7,0-6.7-3-6.7-6.7s3-6.7,6.7-6.7s6.7,3,6.7,6.7S23.7,26.7,20,26.7z"/>
	<path class="st0" d="M33.1,9.3c0,1.3-1.1,2.4-2.4,2.4s-2.4-1.1-2.4-2.4s1.1-2.4,2.4-2.4C32,6.9,33.1,8,33.1,9.3z"/>
</g>
</svg>
