<?xml version="1.0" encoding="utf-8"?>
<!-- Generator: Adobe Illustrator 19.2.0, SVG Export Plug-In . SVG Version: 6.00 Build 0)  -->
<svg version="1.1" id="Capa_1" xmlns="http://www.w3.org/2000/svg" xmlns:xlink="http://www.w3.org/1999/xlink" x="0px" y="0px"
	 viewBox="0 0 100 100" style="enable-background:new 0 0 100 100;" xml:space="preserve">
<style type="text/css">
	.st0{fill:#F0E7D6;}
</style>
<g>
	<path class="st0" d="M98.8,12.9C98.7,12.9,87.1,1.7,87.1,1.7c-0.4-0.4-0.9-0.9-1.8-0.9H38.4c-1.4,0-2.5,1.1-2.5,2.5V11l-16.5,2.8
		c-1.3,0.2-2.2,1.5-2,2.8l0.8,4.9C12.8,23.4,7.3,25.2,2,27.1c-1.3,0.5-1.9,1.9-1.5,3.1l10.6,29.5c0.2,0.6,0.8,1,1.4,1
		c0.2,0,0.3,0,0.5-0.1c0.8-0.3,1.1-1.1,0.9-1.9l-10.4-29c5-1.8,10.2-3.6,15.3-5.3l5,29.1l5.7,33.5c0.2,1.2,1.2,2,2.4,2
		c0.1,0,0.3,0,0.4,0l15.6-2.7L60,84.3l-18.3,6.6l-14.4,5.2L16.1,64.9c-0.3-0.8-1.1-1.1-1.9-0.9c-0.8,0.3-1.1,1.1-0.9,1.9l11.4,31.6
		c0.4,1,1.3,1.6,2.3,1.6c0.3,0,0.6,0,0.8-0.1l14.9-5.3l33.7-12.1l6.4-1.1h14.2c1.4,0,2.5-1.1,2.5-2.5V14.5
		C99.6,13.7,99.1,13.2,98.8,12.9L98.8,12.9z M94.9,13.3h-7.3l-0.2,0c-0.3,0-1.2,0-1.4-0.2c0,0-0.1-0.2-0.1-0.5l0-7.8L94.9,13.3z
		 M96.7,77.5H38.8V49.2c0-0.8-0.7-1.5-1.5-1.5s-1.5,0.7-1.5,1.5v28.7c0,1.4,1.1,2.5,2.5,2.5h27.3l-18.3,3.1l-15.1,2.6l-5.7-33.1
		l-6.3-36.5l15.6-2.7v28.5c0,0.8,0.7,1.5,1.5,1.5s1.5-0.7,1.5-1.5V3.8h44.3l0,8.8c0,1.1,0.3,1.9,1,2.6c1,1,2.4,1,3.2,1
		c0.1,0,0.1,0,0.2,0l9.2,0V77.5z"/>
	<path class="st0" d="M45.8,23.4c0,0.8,0.7,1.5,1.5,1.5h41.6c0.8,0,1.5-0.7,1.5-1.5c0-0.8-0.7-1.5-1.5-1.5H47.3
		C46.5,22,45.8,22.6,45.8,23.4z"/>
	<path class="st0" d="M88.8,32.3H47.3c-0.8,0-1.5,0.7-1.5,1.5s0.7,1.5,1.5,1.5h41.6c0.8,0,1.5-0.7,1.5-1.5S89.6,32.3,88.8,32.3z"/>
	<path class="st0" d="M88.8,42.6H47.3c-0.8,0-1.5,0.7-1.5,1.5c0,0.8,0.7,1.5,1.5,1.5h41.6c0.8,0,1.5-0.7,1.5-1.5
		C90.3,43.3,89.6,42.6,88.8,42.6z"/>
	<path class="st0" d="M88.8,53H47.3c-0.8,0-1.5,0.7-1.5,1.5c0,0.8,0.7,1.5,1.5,1.5h41.6c0.8,0,1.5-0.7,1.5-1.5
		C90.3,53.6,89.6,53,88.8,53z"/>
	<path class="st0" d="M88.8,63.3H47.3c-0.8,0-1.5,0.7-1.5,1.5c0,0.8,0.7,1.5,1.5,1.5h41.6c0.8,0,1.5-0.7,1.5-1.5
		C90.3,63.9,89.6,63.3,88.8,63.3z"/>
</g>
</svg>
