<?xml version="1.0" encoding="utf-8"?>
<!-- Generator: Adobe Illustrator 19.2.0, SVG Export Plug-In . SVG Version: 6.00 Build 0)  -->
<svg version="1.1" id="Layer_1" xmlns="http://www.w3.org/2000/svg" xmlns:xlink="http://www.w3.org/1999/xlink" x="0px" y="0px"
	 viewBox="0 0 100 100" style="enable-background:new 0 0 100 100;" xml:space="preserve">
<style type="text/css">
	.st0{fill:#F0E7D6;}
</style>
<g id="XMLID_1689_">
	<g id="XMLID_454_">
		<path id="XMLID_521_" class="st0" d="M56.3,41.8c0-3.5-2.8-6.3-6.3-6.3s-6.3,2.8-6.3,6.3s2.8,6.3,6.3,6.3S56.3,45.3,56.3,41.8z
			 M47.6,41.8c0-1.3,1.1-2.4,2.4-2.4s2.4,1.1,2.4,2.4s-1.1,2.4-2.4,2.4S47.6,43.1,47.6,41.8z"/>
		<path id="XMLID_524_" class="st0" d="M99.8,70.4l-3.2-7.7l1.7-2.7c1.4-2.2,1.9-4.9,1.2-7.5l-1.6-5.9c-0.7-2.6-2.3-4.8-4.6-6.3
			c-0.4-0.2-0.8-0.3-1.2-0.3C91.2,20.9,77.2,4.6,58.2,0.8c-1.1-0.2-2.1,0.5-2.3,1.5c-0.2,1.1,0.5,2.1,1.5,2.3
			C75.3,8.2,88.3,24,88.3,42.2c0,0.5,0,1.1,0,1.6L84.2,46c0.1-1.3,0.2-2.5,0.2-3.8c0-2.1-0.2-4.2-0.6-6.2c0-0.1,0-0.1,0-0.2
			c-3-15.9-17-28-33.8-28c-16.8,0-30.8,12.1-33.8,28c0,0,0,0.1,0,0.1c-0.4,2-0.6,4.1-0.6,6.2c0,1.3,0.1,2.5,0.2,3.8l-4.1-2.2
			c0-0.5,0-1.1,0-1.6c0-18.3,13-34.1,30.9-37.6c1.1-0.2,1.7-1.2,1.5-2.3c-0.2-1.1-1.2-1.7-2.3-1.5C22.8,4.5,8.8,20.9,7.9,40.2
			c-0.4,0-0.9,0.1-1.2,0.3c-2.2,1.5-3.9,3.7-4.6,6.3l-1.6,5.9c-0.7,2.5-0.3,5.3,1.2,7.5l1.7,2.7l-3.2,7.7c-0.4,1,0.1,2.1,1,2.6
			c0.2,0.1,0.5,0.2,0.8,0.2c0.8,0,1.5-0.5,1.8-1.2l3-7.1l8.5,1.8l-7.4,31c-0.2,1,0.4,2.1,1.4,2.4c0.2,0,0.3,0.1,0.5,0.1
			c0.9,0,1.7-0.6,1.9-1.5l6.7-28.4c8,9,19.5,14.2,31.6,14.2c6.7,0,13.4-1.6,19.3-4.7c4.6-2.4,8.8-5.7,12.3-9.6l6.7,28.4
			c0.2,0.9,1,1.5,1.9,1.5c0.1,0,0.3,0,0.5-0.1c1-0.2,1.7-1.3,1.4-2.4l-7.4-31l8.5-1.8l3,7.1c0.3,0.7,1,1.2,1.8,1.2
			c0.3,0,0.5,0,0.8-0.2C99.8,72.5,100.3,71.4,99.8,70.4z M91.5,46.5c0.3-0.2,0.6-0.4,0.7-0.7l0.5-0.7c0.7,0.8,1.2,1.7,1.4,2.7
			l1.6,5.9c0.4,1.5,0.2,3-0.7,4.3l-1.9,2.9L83,62.9l-1.8-1.9c-1.4-1.4-2.1-3.3-2.1-5.2v-4.7c0-0.6,0.4-1.1,1-1.2l0.5-0.1
			c1.4,0.8,3.1,0.9,4.6,0.1L91.5,46.5z M24.5,49.6h11.6c3.5,0,6.4,2.9,6.4,6.4v15.7c-7.4-1.8-13.9-6.4-18.2-13
			c0.2-0.9,0.4-1.9,0.4-2.9v-4.7C24.8,50.6,24.7,50.1,24.5,49.6z M36.1,45.7H19.7c-0.1-1.2-0.2-2.4-0.2-3.5c0-1.5,0.1-2.9,0.3-4.3
			l19.8-4.8c6.8-1.6,13.9-1.6,20.7,0l19.8,4.8c0.2,1.4,0.3,2.9,0.3,4.3c0,1.2-0.1,2.4-0.2,3.5H63.9c-5.7,0-10.3,4.6-10.3,10.3v16.4
			c-1.2,0.1-2.3,0.2-3.5,0.2c-1.2,0-2.4-0.1-3.5-0.2V56.1C46.5,50.4,41.8,45.7,36.1,45.7z M57.4,56.1c0-3.5,2.9-6.4,6.4-6.4h11.6
			c-0.1,0.5-0.2,1-0.2,1.5v4.7c0,1,0.1,1.9,0.4,2.9c-4.3,6.6-10.8,11.2-18.2,13V56.1z M50,11.7c13.8,0,25.5,9.3,29.2,21.9l-18-4.3
			c-7.4-1.8-15.1-1.8-22.5,0l-18,4.3C24.5,21,36.2,11.7,50,11.7z M4.2,53.7l1.6-5.9c0.3-1,0.8-1.9,1.4-2.7l0.5,0.7
			c0.2,0.3,0.4,0.5,0.7,0.7l6.4,3.4c1.5,0.8,3.2,0.7,4.6-0.1l0.5,0.1c0.6,0.1,1,0.6,1,1.2v4.7c0,2-0.8,3.8-2.1,5.2L17,62.9L6.8,60.8
			l-1.9-2.9C4.1,56.7,3.8,55.1,4.2,53.7z M50,80.5c-11.8,0-23-5.5-30.2-14.8l1.8-1.9c0.3-0.3,0.6-0.7,0.9-1c2.8,3.8,6.5,7,10.6,9.4
			c5.1,2.9,11,4.4,16.9,4.4c5.9,0,11.8-1.5,16.9-4.5c4.1-2.3,7.8-5.6,10.6-9.4c0.3,0.4,0.6,0.7,0.9,1l1.8,1.9
			C73,74.9,61.8,80.5,50,80.5z"/>
		<path id="XMLID_531_" class="st0" d="M50,3.9L50,3.9c1.1,0,2-0.9,2-2s-0.9-2-2-2h0c-1.1,0-2,0.9-2,2S48.9,3.9,50,3.9z"/>
	</g>
</g>
</svg>
