<?xml version="1.0" encoding="utf-8"?>
<!-- Generator: Adobe Illustrator 19.2.0, SVG Export Plug-In . SVG Version: 6.00 Build 0)  -->
<svg version="1.1" id="Layer_1" xmlns="http://www.w3.org/2000/svg" xmlns:xlink="http://www.w3.org/1999/xlink" x="0px" y="0px"
	 viewBox="0 0 100 100" style="enable-background:new 0 0 100 100;" xml:space="preserve">
<style type="text/css">
	.st0{fill:#F0E7D6;}
</style>
<g>
	<path class="st0" d="M99.7,46c-1-3.2-4-5.3-7.4-5.2l-0.7,0c-2.1,0.1-4.1,0.9-5.5,2.4L75,54.2c-0.3-0.4-0.6-0.8-0.9-1.1
		c-1.5-1.5-3.5-2.4-5.6-2.4H52.9c-2.9,0-5.8-0.4-8.5-1.1c-7.1-2-13.8-0.5-19.5,4.1c-2.4,2-4.1,4.1-5.2,5.6C18.5,58.4,17,58,15.6,58
		c-1.9,0-3.6,0.8-4.9,2.1L0.5,70.6c-0.7,0.8-0.7,2,0,2.8l8.1,8c0.8,0.8,2,0.8,2.8,0c0.8-0.8,0.8-2,0-2.8l-6.7-6.6l8.7-9.1
		c0.6-0.6,1.3-0.9,2.2-0.9c0.8,0,1.6,0.3,2.2,0.9l15.6,15.1c0.6,0.6,0.9,1.3,0.9,2.2c0,0.8-0.3,1.6-0.9,2.2l-8.6,8.8L22.7,89
		c-0.8-0.7-2-0.7-2.8,0.1c-0.7,0.8-0.7,2,0.1,2.8l3.6,3.4c0.4,0.4,0.9,0.5,1.4,0.5c0.5,0,1-0.2,1.4-0.6L36.3,85c1.3-1.3,2-3.1,2-5
		c0-0.9-0.2-1.7-0.5-2.5l3.5-0.4c1.6-0.2,3.3-0.3,4.9-0.3h23.7c0.4,0,0.7,0,1.1,0l2.3-0.2c2.3-0.2,4.5-1,6.4-2.3
		c0.9-0.6,1.8-1.4,2.5-2.3l16-18.8C99.9,51.3,100.4,48.5,99.7,46z M95.2,50.7l-16,18.8c-0.5,0.6-1.1,1.1-1.8,1.6
		c-1.3,0.9-2.9,1.5-4.5,1.6l-2.3,0.2c-0.3,0-0.5,0-0.8,0H46.2c-1.8,0-3.6,0.1-5.4,0.3l-5.7,0.7L22.6,61.9c0.9-1.3,2.4-3.3,4.7-5.2
		c4.7-3.9,10.1-5,16-3.4c3.1,0.8,6.3,1.3,9.6,1.3h15.6c1,0,2,0.4,2.8,1.2c0.5,0.5,0.9,1.2,1,1.9c0,0.2,0,0.4,0.1,0.5
		c0.1,0.9-0.2,1.9-0.8,2.6l-0.1,0.1c-0.7,0.9-1.8,1.4-3,1.4H54.9c-1.1,0-2,0.9-2,2c0,1.1,0.9,2,2,2h13.6c2.4,0,4.6-1.1,6-2.9
		l0.1-0.1c1.1-1.4,1.7-3.1,1.7-4.8l12.6-12.4c0.8-0.8,1.8-1.2,2.9-1.3l0.7,0c1.6-0.1,3,0.9,3.5,2.5C96.3,48.4,96,49.7,95.2,50.7z"/>
	<path class="st0" d="M15.6,66.1c-2.9,0-5.3,2.4-5.3,5.3c0,2.9,2.4,5.3,5.3,5.3s5.3-2.4,5.3-5.3C20.9,68.4,18.5,66.1,15.6,66.1z
		 M15.6,72.8c-0.8,0-1.4-0.6-1.4-1.4c0-0.8,0.6-1.4,1.4-1.4c0.8,0,1.4,0.6,1.4,1.4C17,72.1,16.3,72.8,15.6,72.8z"/>
	<path class="st0" d="M46.5,62.7l-0.1,0C45.4,62.9,44.7,64,45,65c0.2,0.9,1,1.5,1.9,1.5c0.1,0,0.3,0,0.4-0.1l0.1,0
		c1.1-0.2,1.7-1.3,1.5-2.4S47.6,62.4,46.5,62.7z"/>
	<path class="st0" d="M15.3,83.4l-0.1,0c-1.1,0.2-1.7,1.3-1.5,2.4c0.2,0.9,1,1.5,1.9,1.5c0.1,0,0.3,0,0.5-0.1l0.1,0
		c1.1-0.2,1.7-1.3,1.5-2.4C17.4,83.8,16.4,83.1,15.3,83.4z"/>
	<path class="st0" d="M57.3,45.6c11.4,0,20.7-9.3,20.7-20.7S68.8,4.2,57.3,4.2c-4.7,0-9.1,1.5-12.8,4.4c-0.8,0.7-1.6,1.4-2.4,2.2
		c-1.1,1.2-2,2.5-2.8,3.8c-1.8,3.1-2.7,6.7-2.7,10.3C36.6,36.3,45.9,45.6,57.3,45.6z M42.7,16.6c0.6-1.1,1.4-2.2,2.3-3.1
		c0.6-0.6,1.2-1.2,1.9-1.8c3-2.3,6.6-3.6,10.4-3.6c9.3,0,16.8,7.5,16.8,16.8c0,9.3-7.5,16.8-16.8,16.8c-9.3,0-16.8-7.5-16.8-16.8
		C40.5,22,41.3,19.1,42.7,16.6z"/>
	<path class="st0" d="M59.1,31.6c-0.8,0.5-1.8,0.6-2.5,0.6c-1.3,0-2.5-1.6-2.5-3.3c0-1.1-0.9-2-2-2c-1.1,0-2,0.9-2,2
		c0,3.4,2.1,6.2,4.8,7c0.1,1,0.9,1.8,2,1.8c1.1,0,1.9-0.9,2-1.9c2.8-0.7,5.3-2.8,5.3-6.5c0-4.4-4.5-6.8-6.8-6.8c0,0-2.9-0.3-2.9-2.1
		c0-2.8,2.9-2.9,2.9-2.9c0.5,0,1.2,0.3,1.7,0.8c0.3,0.3,0.3,0.3,0.3,1.3c0,1.1,0.9,2,2,2c1.1,0,2-0.9,2-2c0-1.3,0-2.7-1.4-4.1
		c-0.9-0.9-1.9-1.5-3-1.8c-0.1-1-0.9-1.8-2-1.8c-1.1,0-2,0.9-2,2v0.1c-2.1,0.8-4.5,2.7-4.5,6.4c0,4.5,4.7,6,6.8,6
		c0.6,0,2.9,1.1,2.9,2.9C60.3,30.4,59.9,31.1,59.1,31.6z"/>
</g>
</svg>
