<?xml version="1.0" encoding="utf-8"?>
<!-- Generator: Adobe Illustrator 19.2.0, SVG Export Plug-In . SVG Version: 6.00 Build 0)  -->
<svg version="1.1" id="Layer_1" xmlns="http://www.w3.org/2000/svg" xmlns:xlink="http://www.w3.org/1999/xlink" x="0px" y="0px"
	 viewBox="0 0 100 100" style="enable-background:new 0 0 100 100;" xml:space="preserve">
<style type="text/css">
	.st0{fill:#F0E7D6;}
</style>
<g>
	<path class="st0" d="M99.8,23.7c-0.3-1.3-1.2-2.4-2.3-3c-1.1-0.7-2.5-0.8-3.8-0.5c-1.3,0.3-2.4,1.2-3,2.3l-0.8,1.4
		c-0.8-0.5-1.8-0.2-2.3,0.6l-4.2,7.2l-1.4-0.8c-0.4-0.2-0.8-0.3-1.3-0.2c-0.4,0.1-0.8,0.4-1,0.8c-0.5,0.8-0.2,1.8,0.6,2.3l1.4,0.8
		L67.5,59.2L64,68.5l-1.7,3.1c-1,1.7-0.9,3.8,0.3,5.4l-3.7,4.6l-1-2.6c-0.5-1.2-1.6-2-2.8-2.1c-1.3-0.1-2.5,0.5-3.1,1.6l-0.6,1
		l-0.6-6.7c-0.1-1.6-1.4-2.8-2.9-3c-1.6-0.2-3.1,0.8-3.6,2.3l-4.1,12.3c-0.3,0.9,0.2,1.8,1,2.1c0.2,0.1,0.3,0.1,0.5,0.1
		c0.7,0,1.4-0.5,1.6-1.1l4.1-12.3l0.6,6.8c0.1,1.4,1.2,2.6,2.6,3c1.4,0.3,2.9-0.3,3.6-1.5l0.6-1l1,2.6c0.4,1.1,1.4,1.9,2.6,2.1
		c1.2,0.2,2.4-0.3,3.1-1.2l3.9-4.9c0.4,0.1,0.9,0.2,1.3,0.2c1.8,0,3.4-0.9,4.3-2.5l1.7-2.8l6.3-7.7l14.3-24.8l1.4,0.8
		c0.4,0.2,0.7,0.6,0.8,1c0.1,0.4,0.1,0.9-0.2,1.3L88.7,56c-0.3,0.4-0.3,0.8-0.2,1.3c0.1,0.4,0.4,0.8,0.8,1.1
		c0.4,0.2,0.8,0.3,1.3,0.2c0.4-0.1,0.8-0.4,1-0.8l6.7-11.5c0.7-1.1,0.8-2.5,0.5-3.8c-0.3-1.3-1.2-2.4-2.3-3l-1.4-0.8l4.2-7.2
		c0.5-0.8,0.2-1.8-0.6-2.3l0.8-1.4C100,26.4,100.2,25,99.8,23.7z M93.5,24.2c0.2-0.4,0.6-0.7,1-0.8c0.4-0.1,0.9,0,1.3,0.2
		c0.4,0.2,0.7,0.6,0.8,1c0.1,0.4,0,0.9-0.2,1.3l-0.8,1.4l-2.9-1.7L93.5,24.2z M70.8,70.7L70,70.2l-2.5-1.4l2.4-6.3l5.2,3L70.8,70.7z
		 M65.8,75.5c-0.7-0.5-0.9-1.4-0.5-2.2l0.8-1.4l2.9,1.7L68.2,75c-0.2,0.4-0.6,0.7-1.1,0.8C66.7,75.9,66.2,75.8,65.8,75.5z M77,62.7
		l-5.8-3.3l13.3-23.1l5.8,3.3L77,62.7z M92,36.8l-5.8-3.3l3.3-5.8l5.8,3.3L92,36.8z"/>
	<path class="st0" d="M26.3,74.7l-5.9,5.9L16.9,77c-0.7-0.6-1.7-0.6-2.3,0c-0.3,0.3-0.5,0.7-0.5,1.2c0,0.4,0.2,0.9,0.5,1.2l3.5,3.5
		c0.6,0.6,1.5,1,2.3,1c0.9,0,1.7-0.3,2.4-1l5.9-5.9c0.6-0.7,0.5-1.6-0.1-2.3C27.9,74.1,27,74.1,26.3,74.7z"/>
	<path class="st0" d="M6.7,79.2c0,7.8,6.3,14.2,14.2,14.2S35,87,35,79.2c0-0.9-0.7-1.7-1.7-1.7s-1.7,0.7-1.7,1.7
		c0,6-4.8,10.8-10.8,10.8S10,85.1,10,79.2s4.8-10.8,10.8-10.8c2.3,0,4.6,0.8,6.5,2.2c0.7,0.6,1.8,0.4,2.3-0.3
		c0.6-0.7,0.4-1.8-0.3-2.3c-4.3-3.2-10-3.7-14.8-1.3C9.7,68.9,6.7,73.8,6.7,79.2z"/>
	<path class="st0" d="M60,13.3c0.9,0,1.7-0.7,1.7-1.7c0-0.9-0.7-1.7-1.7-1.7H16.7c-0.9,0-1.7,0.7-1.7,1.7v6.7c0,0.9,0.7,1.7,1.7,1.7
		H60c0.9,0,1.7-0.7,1.7-1.7c0-0.9-0.7-1.7-1.7-1.7H18.3v-3.3H60z"/>
	<path class="st0" d="M21.7,23.3c-0.9,0-1.7,0.7-1.7,1.7c0,0.9,0.7,1.7,1.7,1.7H55c0.9,0,1.7-0.7,1.7-1.7c0-0.9-0.7-1.7-1.7-1.7
		H21.7z"/>
	<path class="st0" d="M65,35H28.3c-0.9,0-1.7,0.7-1.7,1.7c0,0.9,0.7,1.7,1.7,1.7H65c0.9,0,1.7-0.7,1.7-1.7C66.7,35.7,65.9,35,65,35z
		"/>
	<path class="st0" d="M48.3,46.7c0-0.9-0.7-1.7-1.7-1.7H13.3c-0.9,0-1.7,0.7-1.7,1.7c0,0.9,0.7,1.7,1.7,1.7h33.3
		C47.6,48.3,48.3,47.6,48.3,46.7z"/>
	<path class="st0" d="M65,45H53.3c-0.9,0-1.7,0.7-1.7,1.7c0,0.9,0.7,1.7,1.7,1.7H65c0.9,0,1.7-0.7,1.7-1.7C66.7,45.7,65.9,45,65,45z
		"/>
	<path class="st0" d="M30,56.7c0.9,0,1.7-0.7,1.7-1.7c0-0.9-0.7-1.7-1.7-1.7H13.3c-0.9,0-1.7,0.7-1.7,1.7c0,0.9,0.7,1.7,1.7,1.7H30z
		"/>
	<path class="st0" d="M36.7,56.7h11.7c0.9,0,1.7-0.7,1.7-1.7c0-0.9-0.7-1.7-1.7-1.7H36.7c-0.9,0-1.7,0.7-1.7,1.7
		C35,55.9,35.7,56.7,36.7,56.7z"/>
	<path class="st0" d="M75,76.7c-0.9,0-1.7,0.7-1.7,1.7V95c0,0.9-0.7,1.7-1.7,1.7H5c-0.9,0-1.7-0.7-1.7-1.7V5c0-0.9,0.7-1.7,1.7-1.7
		h66.7c0.9,0,1.7,0.7,1.7,1.7v31.3c0,0.9,0.7,1.7,1.7,1.7c0.9,0,1.7-0.7,1.7-1.7V5c0-2.8-2.2-5-5-5H5C2.2,0,0,2.2,0,5v90
		c0,2.8,2.2,5,5,5h66.7c2.8,0,5-2.2,5-5V78.3C76.7,77.4,75.9,76.7,75,76.7z"/>
</g>
</svg>
