<?xml version="1.0" encoding="utf-8"?>
<!-- Generator: Adobe Illustrator 19.2.0, SVG Export Plug-In . SVG Version: 6.00 Build 0)  -->
<svg version="1.1" id="Layer_1" xmlns="http://www.w3.org/2000/svg" xmlns:xlink="http://www.w3.org/1999/xlink" x="0px" y="0px"
	 viewBox="0 0 300 100" style="enable-background:new 0 0 300 100;" xml:space="preserve">
<style type="text/css">
	.st0{clip-path:url(#SVGID_2_);fill:#95866A;}
	.st1{clip-path:url(#SVGID_4_);fill:url(#SVGID_5_);}
	.st2{fill:#95866A;}
	.st3{clip-path:url(#SVGID_7_);fill:url(#SVGID_8_);}
	.st4{clip-path:url(#SVGID_10_);fill:url(#SVGID_11_);}
	.st5{clip-path:url(#SVGID_13_);fill:url(#SVGID_14_);}
	.st6{clip-path:url(#SVGID_13_);fill:url(#SVGID_15_);}
	.st7{clip-path:url(#SVGID_17_);fill:url(#SVGID_18_);}
</style>
<g>
	<g>
		<defs>
			<path id="SVGID_1_" d="M49.4,41c0.5-0.1,1.1-0.2,1.7-0.3c0.5-0.1,1.1-0.1,1.7-0.1c0.6,0,1.2,0,1.8,0c1.7-5,3.3-9.6,4.6-13.9
				c1.3-4.2,2.5-7.4,3.4-9.5c0.2-0.4,0.4-0.9,0.6-1.3c0.2-0.4,0.4-0.8,0.7-1.2c-0.9-0.1-1.7-0.2-2.3-0.3c-0.6-0.1-1.2-0.2-1.6-0.3
				c-1.2-0.1-2.4-0.3-3.8-0.6c-1.3-0.3-2.9-0.5-4.6-0.8c-1.7-0.3-3.7-0.6-5.9-0.9c-2.2-0.3-4.7-0.6-7.6-0.8c-3.7-0.3-7,0-10,0.7
				c-3,0.7-5.7,1.8-8,3.3c-2.3,1.4-4.2,3.2-5.8,5.2c-1.5,2-2.7,4.1-3.4,6.3c-1,3-1.1,5.5-0.5,7.5c0.6,2,1.3,3.5,2.1,4.5
				c0.2,0.3,0.2,0.6,0,0.9c-0.2,0.3-0.4,0.4-0.8,0.4c-1.3-0.1-2.4-0.5-3.4-1.1c-1-0.6-1.9-1.4-2.6-2.3c-0.7-0.9-1.3-1.9-1.7-2.9
				c-0.4-1.1-0.7-2.1-0.7-3.2c-0.1-0.9-0.1-2.1,0-3.5c0.1-1.4,0.4-3,1.2-4.7c0.7-1.7,1.8-3.4,3.4-5.2c1.6-1.8,3.8-3.4,6.7-5
				c3-1.6,6.1-2.6,9.6-3c3.4-0.4,7-0.4,10.8-0.1c3.8,0.3,7.6,0.8,11.6,1.6c4,0.8,8.1,1.5,12.4,2.1c2.1,0.3,4.1,0.5,6.1,0.6
				c1.6-2.3,3.2-3.8,4.9-4.6c1.7-0.7,3-1.2,4.1-1.3c0.3,0,0.5,0.1,0.7,0.4c0.1,0.3,0.1,0.5-0.1,0.8c-0.9,1.1-1.8,2.5-2.6,4.3
				c2.2-0.3,4.2-0.8,5.9-1.4c1.7-0.6,3-1.3,4-2c0.7-0.5,1.3-1.2,1.8-2.1c0.5-0.9,0.8-1.5,0.9-2C84.6,4.9,84.7,4.9,85,5
				c0.3,0.1,0.4,0.2,0.6,0.4c0.3,0.3,0.5,0.7,0.8,1.2c0.3,0.4,0.4,1,0.4,1.6c0,0.6-0.1,1.3-0.3,2c-0.3,0.7-0.7,1.4-1.4,2.2
				c-0.8,0.8-1.7,1.5-2.7,2c-1.1,0.5-2.2,0.9-3.5,1.1c-1.3,0.3-2.6,0.4-4,0.4c-1.4,0-2.8-0.1-4.1-0.2c-0.8,1.9-1.6,4-2.4,6.4
				c-0.8,2.3-1.6,4.8-2.4,7.3c-0.3,1.1-0.6,2.2-0.9,3.4c-0.3,1-0.5,2-0.8,3.2c-0.3,1.2-0.6,2.3-0.8,3.4c2.2-0.6,4.3-1.4,6.1-2.4
				c1.8-1,3.2-2.1,4.2-3.6c0.1-0.2,0.3-0.3,0.5-0.2c0.2,0.1,0.3,0.2,0.3,0.4c0.1,0.4,0.1,1,0,1.6c-0.1,0.6-0.3,1.3-0.7,2
				c-0.4,0.7-1,1.3-1.8,2c-0.8,0.7-1.9,1.3-3.2,1.9c-0.9,0.3-1.9,0.6-2.9,0.8c-1.1,0.2-2.2,0.4-3.4,0.5c-0.9,3.1-1.9,6-2.9,8.6
				c-1,2.7-2,5-2.9,7.1c-1.1,2.4-2.2,4.6-3.2,6.6c-2.1,3.7-4.4,6.5-7,8.6c-2.6,2.1-5.3,3.6-8.1,4.5c-2.8,0.9-5.4,1.4-8,1.4
				c-2.6,0-4.9-0.3-6.8-0.8c-1.3-0.3-2.4-0.7-3.3-1.1c-0.9-0.4-1.7-0.8-2.4-1.2c-0.7-0.4-1.3-0.8-1.9-1.3c-2.4-1.7-3.9-3.8-4.7-6.4
				c-0.7-2.6-0.9-5.3-0.6-8.2c0.3-2.9,1-5.7,2.2-8.6c1.1-2.8,2.4-5.3,3.7-7.4c1.8-3,4-5.7,6.5-8.3c2.6-2.6,5.3-4.8,8.1-6.5
				c2.9-1.8,5.8-3,8.7-3.6c3-0.6,5.7-0.5,8.3,0.5c1,0.4,1.7,1.3,2.1,2.5c0.4,1.1,0.6,2.6,0.6,4.5S50.4,37.7,49.4,41z M29.1,77.3
				c2.6-0.1,5.1-1.2,7.5-3.3c2.3-2.1,4.5-4.8,6.6-8c2.1-3.2,4-6.9,5.7-10.9c1.8-4,3.4-8.1,4.9-12.2c-0.9,0.1-1.8,0.3-2.6,0.4
				c-0.9,0.1-1.7,0.3-2.6,0.6c-1.3,3.3-2.7,6.2-4.2,8.6c-1.5,2.4-3,4.3-4.5,5.8c-1.5,1.5-2.8,2.5-4,3c-1.2,0.5-2.2,0.7-2.8,0.3
				c-0.4-0.2-0.8-0.7-1.3-1.4c-0.5-0.8-0.8-1.7-0.9-2.8c-0.1-1.1,0-2.4,0.4-3.8c0.4-1.4,1.3-2.9,2.7-4.3c1.5-1.5,3.2-3,5.3-4.3
				c2.1-1.3,4.4-2.3,7.1-3c1-1.9,1.7-3.7,2.1-5.2c0.4-1.5,0.5-2.9,0.4-4c-0.1-1.1-0.2-2-0.5-2.6c-0.3-0.6-0.6-1-0.9-1.2
				c-0.3-0.1-1.2-0.2-2.5-0.1c-1.3,0.1-3.1,0.7-5.2,1.9c-2.2,1.2-4.6,3.2-7.4,6.1c-2.8,2.8-5.8,6.9-9.1,12.3c-1.7,2.9-3,5.8-3.9,8.8
				c-0.4,1.3-0.7,2.6-0.9,3.9c-0.2,1.3-0.3,2.7-0.2,4.1c0.1,1.4,0.3,2.7,0.7,4.1c0.4,1.3,1.1,2.6,2,3.8c0.8,1.1,1.7,1.9,2.6,2.4
				c0.9,0.5,1.8,0.9,2.7,1.1C27,77.4,28,77.4,29.1,77.3z M44,45.4c-2,0.9-3.8,2.1-5.4,3.5c-1.6,1.4-3,3.1-4.1,5.1
				c0.8-0.2,1.8-0.6,2.8-1.3c0.9-0.6,1.9-1.4,3-2.6C41.4,49,42.6,47.4,44,45.4z"/>
		</defs>
		<clipPath id="SVGID_2_">
			<use xlink:href="#SVGID_1_"  style="overflow:visible;"/>
		</clipPath>
		<rect x="2.1" y="-8.8" class="st0" width="117.4" height="115.9"/>
	</g>
	<g>
		<defs>
			<path id="SVGID_3_" d="M49.1,40.7c0.5-0.1,1.1-0.2,1.7-0.3c0.5-0.1,1.1-0.1,1.7-0.1c0.6,0,1.2,0,1.8,0c1.7-5,3.3-9.6,4.6-13.9
				c1.3-4.2,2.5-7.4,3.4-9.5c0.2-0.4,0.4-0.9,0.6-1.3c0.2-0.4,0.4-0.8,0.7-1.2c-0.9-0.1-1.7-0.2-2.3-0.3c-0.6-0.1-1.2-0.2-1.6-0.3
				c-1.2-0.1-2.4-0.3-3.8-0.6c-1.3-0.3-2.9-0.5-4.6-0.8c-1.7-0.3-3.7-0.6-5.9-0.9c-2.2-0.3-4.7-0.6-7.6-0.8c-3.7-0.3-7,0-10,0.7
				c-3,0.7-5.7,1.8-8,3.3c-2.3,1.4-4.2,3.2-5.8,5.2c-1.5,2-2.7,4.1-3.4,6.3c-1,3-1.1,5.5-0.5,7.5c0.6,2,1.3,3.5,2.1,4.5
				c0.2,0.3,0.2,0.6,0,0.9c-0.2,0.3-0.4,0.4-0.8,0.4c-1.3-0.1-2.4-0.5-3.4-1.1c-1-0.6-1.9-1.4-2.6-2.3c-0.7-0.9-1.3-1.9-1.7-2.9
				c-0.4-1.1-0.7-2.1-0.7-3.2c-0.1-0.9-0.1-2.1,0-3.5c0.1-1.4,0.4-3,1.2-4.7c0.7-1.7,1.8-3.4,3.4-5.2c1.6-1.8,3.8-3.4,6.7-5
				c3-1.6,6.1-2.6,9.6-3c3.4-0.4,7-0.4,10.8-0.1c3.8,0.3,7.6,0.8,11.6,1.6c4,0.8,8.1,1.5,12.4,2.1c2.1,0.3,4.1,0.5,6.1,0.6
				c1.6-2.3,3.2-3.8,4.9-4.6c1.7-0.7,3-1.2,4.1-1.3c0.3,0,0.5,0.1,0.7,0.4c0.1,0.3,0.1,0.5-0.1,0.8c-0.9,1.1-1.8,2.5-2.6,4.3
				c2.2-0.3,4.2-0.8,5.9-1.4c1.7-0.6,3-1.3,4-2c0.7-0.5,1.3-1.2,1.8-2.1c0.5-0.9,0.8-1.5,0.9-2c0.1-0.3,0.2-0.3,0.5-0.2
				c0.3,0.1,0.4,0.2,0.6,0.4c0.3,0.3,0.5,0.7,0.8,1.2c0.3,0.4,0.4,1,0.4,1.6c0,0.6-0.1,1.3-0.3,2c-0.3,0.7-0.7,1.4-1.4,2.2
				c-0.8,0.8-1.7,1.5-2.7,2s-2.2,0.9-3.5,1.1c-1.3,0.3-2.6,0.4-4,0.4c-1.4,0-2.8-0.1-4.1-0.2c-0.8,1.9-1.6,4-2.4,6.4
				c-0.8,2.3-1.6,4.8-2.4,7.3c-0.3,1.1-0.6,2.2-0.9,3.4c-0.3,1-0.5,2-0.8,3.2c-0.3,1.2-0.6,2.3-0.8,3.4c2.2-0.6,4.3-1.4,6.1-2.4
				c1.8-1,3.2-2.1,4.2-3.6c0.1-0.2,0.3-0.3,0.5-0.2c0.2,0.1,0.3,0.2,0.3,0.4c0.1,0.4,0.1,1,0,1.6c-0.1,0.6-0.3,1.3-0.7,2
				c-0.4,0.7-1,1.3-1.8,2c-0.8,0.7-1.9,1.3-3.2,1.9c-0.9,0.3-1.9,0.6-2.9,0.8c-1.1,0.2-2.2,0.4-3.4,0.5c-0.9,3.1-1.9,6-2.9,8.6
				c-1,2.7-2,5-2.9,7.1c-1.1,2.4-2.2,4.6-3.2,6.6c-2.1,3.7-4.4,6.5-7,8.6c-2.6,2.1-5.3,3.6-8.1,4.5c-2.8,0.9-5.4,1.4-8,1.4
				c-2.6,0-4.9-0.3-6.8-0.8C22,77.7,20.9,77.4,20,77c-0.9-0.4-1.7-0.8-2.4-1.2c-0.7-0.4-1.3-0.8-1.9-1.3c-2.4-1.7-3.9-3.8-4.7-6.4
				c-0.7-2.6-0.9-5.3-0.6-8.2c0.3-2.9,1-5.7,2.2-8.6c1.1-2.8,2.4-5.3,3.7-7.4c1.8-3,4-5.7,6.5-8.3c2.6-2.6,5.3-4.8,8.1-6.5
				c2.9-1.8,5.8-3,8.7-3.6c3-0.6,5.7-0.5,8.3,0.5c1,0.4,1.7,1.3,2.1,2.5c0.4,1.1,0.6,2.6,0.6,4.5C50.6,34.8,50.1,37.4,49.1,40.7z
				 M28.8,77c2.6-0.1,5.1-1.2,7.5-3.3c2.3-2.1,4.5-4.8,6.6-8c2.1-3.2,4-6.9,5.7-10.9c1.8-4,3.4-8.1,4.9-12.2
				c-0.9,0.1-1.8,0.3-2.6,0.4c-0.9,0.1-1.7,0.3-2.6,0.6c-1.3,3.3-2.7,6.2-4.2,8.6c-1.5,2.4-3,4.3-4.5,5.8c-1.5,1.5-2.8,2.5-4,3
				c-1.2,0.5-2.2,0.7-2.8,0.3c-0.4-0.2-0.8-0.7-1.3-1.4c-0.5-0.8-0.8-1.7-0.9-2.8c-0.1-1.1,0-2.4,0.4-3.8c0.4-1.4,1.3-2.9,2.7-4.3
				c1.5-1.5,3.2-3,5.3-4.3c2.1-1.3,4.4-2.3,7.1-3c1-1.9,1.7-3.7,2.1-5.2c0.4-1.5,0.5-2.9,0.4-4c-0.1-1.1-0.2-2-0.5-2.6
				c-0.3-0.6-0.6-1-0.9-1.2c-0.3-0.1-1.2-0.2-2.5-0.1c-1.3,0.1-3.1,0.7-5.2,1.9c-2.2,1.2-4.6,3.2-7.4,6.1c-2.8,2.8-5.8,6.9-9.1,12.3
				c-1.7,2.9-3,5.8-3.9,8.8c-0.4,1.3-0.7,2.6-0.9,3.9c-0.2,1.3-0.3,2.7-0.2,4.1c0.1,1.4,0.3,2.7,0.7,4.1c0.4,1.3,1.1,2.6,2,3.8
				c0.8,1.1,1.7,1.9,2.6,2.4c0.9,0.5,1.8,0.9,2.7,1.1C26.7,77.1,27.7,77.1,28.8,77z M43.7,45.1c-2,0.9-3.8,2.1-5.4,3.5
				c-1.6,1.4-3,3.1-4.1,5.1c0.8-0.2,1.8-0.6,2.8-1.3c0.9-0.6,1.9-1.4,3-2.6C41.1,48.7,42.3,47.1,43.7,45.1z"/>
		</defs>
		<clipPath id="SVGID_4_">
			<use xlink:href="#SVGID_3_"  style="overflow:visible;"/>
		</clipPath>
		<linearGradient id="SVGID_5_" gradientUnits="userSpaceOnUse" x1="1.7695" y1="60.8137" x2="119.39" y2="60.8137">
			<stop  offset="0" style="stop-color:#95866A"/>
			<stop  offset="0.507" style="stop-color:#DAD2B3"/>
			<stop  offset="1" style="stop-color:#95866A"/>
		</linearGradient>
		<rect x="1.8" y="-5.8" class="st1" width="117.6" height="133.2"/>
	</g>
	<g>
		<g>
			<path class="st2" d="M238,93.4l-0.8-1.9h-3.9l-0.8,1.9h-0.5l3.1-6.7h0.5l3.1,6.7H238z M235.2,87.2l-1.8,3.9h3.5L235.2,87.2z"/>
			<path class="st2" d="M245.5,91.4c-0.2,0.4-0.4,0.8-0.7,1.1c-0.3,0.3-0.7,0.5-1.1,0.7c-0.4,0.2-0.9,0.3-1.4,0.3H240v-6.7h2.2
				c0.5,0,1,0.1,1.4,0.3c0.4,0.2,0.8,0.4,1.1,0.7c0.3,0.3,0.6,0.6,0.7,1.1c0.2,0.4,0.3,0.8,0.3,1.3v0
				C245.7,90.5,245.6,91,245.5,91.4z M245.2,90.1c0-0.4-0.1-0.8-0.2-1.1c-0.1-0.4-0.3-0.7-0.6-0.9c-0.3-0.3-0.6-0.5-1-0.6
				c-0.4-0.2-0.8-0.2-1.3-0.2h-1.7V93h1.7c0.5,0,0.9-0.1,1.3-0.2c0.4-0.1,0.7-0.4,1-0.6c0.3-0.3,0.5-0.6,0.6-0.9
				C245.1,90.9,245.2,90.5,245.2,90.1L245.2,90.1z"/>
			<path class="st2" d="M249.8,93.5h-0.4l-2.9-6.7h0.6l2.6,6.1l2.6-6.1h0.5L249.8,93.5z"/>
			<path class="st2" d="M259.9,91.4c-0.2,0.4-0.4,0.8-0.7,1.1c-0.3,0.3-0.6,0.6-1.1,0.8c-0.4,0.2-0.9,0.3-1.4,0.3
				c-0.5,0-1-0.1-1.4-0.3c-0.4-0.2-0.8-0.4-1.1-0.8c-0.3-0.3-0.5-0.7-0.7-1.1c-0.2-0.4-0.2-0.8-0.2-1.3v0c0-0.5,0.1-0.9,0.2-1.3
				c0.2-0.4,0.4-0.8,0.7-1.1c0.3-0.3,0.6-0.6,1.1-0.8c0.4-0.2,0.9-0.3,1.4-0.3c0.5,0,1,0.1,1.4,0.3c0.4,0.2,0.8,0.4,1.1,0.8
				c0.3,0.3,0.5,0.7,0.7,1.1c0.2,0.4,0.2,0.8,0.2,1.3c0,0,0,0,0,0C260.2,90.5,260.1,91,259.9,91.4z M259.6,90.1
				c0-0.4-0.1-0.8-0.2-1.2c-0.1-0.4-0.3-0.7-0.6-1c-0.3-0.3-0.6-0.5-0.9-0.6c-0.3-0.2-0.7-0.2-1.1-0.2c-0.4,0-0.8,0.1-1.1,0.2
				c-0.3,0.2-0.6,0.4-0.9,0.6c-0.3,0.3-0.4,0.6-0.6,0.9c-0.1,0.4-0.2,0.7-0.2,1.2v0c0,0.4,0.1,0.8,0.2,1.2c0.1,0.4,0.3,0.7,0.6,1
				c0.3,0.3,0.6,0.5,0.9,0.6s0.7,0.2,1.1,0.2c0.4,0,0.8-0.1,1.1-0.2c0.3-0.2,0.6-0.4,0.9-0.6c0.3-0.3,0.4-0.6,0.6-0.9
				C259.6,90.9,259.6,90.5,259.6,90.1L259.6,90.1z"/>
			<path class="st2" d="M266.4,93.2c-0.4,0.2-0.9,0.3-1.5,0.3c-0.5,0-1-0.1-1.4-0.3c-0.4-0.2-0.8-0.4-1.1-0.7
				c-0.3-0.3-0.5-0.7-0.7-1.1s-0.2-0.9-0.2-1.3v0c0-0.5,0.1-0.9,0.2-1.3c0.2-0.4,0.4-0.8,0.7-1.1c0.3-0.3,0.6-0.6,1-0.8
				c0.4-0.2,0.9-0.3,1.4-0.3c0.3,0,0.5,0,0.7,0.1c0.2,0,0.4,0.1,0.6,0.2c0.2,0.1,0.4,0.2,0.6,0.3c0.2,0.1,0.3,0.2,0.5,0.4l-0.3,0.4
				c-0.3-0.2-0.6-0.4-0.9-0.6c-0.3-0.2-0.8-0.2-1.3-0.2c-0.4,0-0.8,0.1-1.1,0.2c-0.3,0.2-0.6,0.4-0.9,0.6c-0.2,0.3-0.4,0.6-0.6,1
				c-0.1,0.4-0.2,0.7-0.2,1.1v0c0,0.4,0.1,0.8,0.2,1.2c0.1,0.4,0.3,0.7,0.6,1c0.2,0.3,0.5,0.5,0.9,0.6s0.8,0.2,1.2,0.2
				c0.2,0,0.4,0,0.6-0.1c0.2,0,0.4-0.1,0.6-0.2c0.2-0.1,0.4-0.2,0.5-0.2c0.2-0.1,0.3-0.2,0.4-0.3v-1.9h-2.2V90h2.7v2.6
				C267.2,92.8,266.8,93,266.4,93.2z"/>
			<path class="st2" d="M274.9,93.4l-0.8-1.9h-3.9l-0.8,1.9h-0.5l3.1-6.7h0.5l3.1,6.7H274.9z M272.1,87.2l-1.8,3.9h3.5L272.1,87.2z"
				/>
			<path class="st2" d="M282.4,91.4c-0.2,0.4-0.4,0.8-0.7,1.1c-0.3,0.3-0.7,0.5-1.1,0.7c-0.4,0.2-0.9,0.3-1.4,0.3h-2.2v-6.7h2.2
				c0.5,0,1,0.1,1.4,0.3c0.4,0.2,0.8,0.4,1.1,0.7c0.3,0.3,0.6,0.6,0.7,1.1c0.2,0.4,0.3,0.8,0.3,1.3v0
				C282.6,90.5,282.5,91,282.4,91.4z M282.1,90.1c0-0.4-0.1-0.8-0.2-1.1c-0.1-0.4-0.3-0.7-0.6-0.9c-0.3-0.3-0.6-0.5-1-0.6
				c-0.4-0.2-0.8-0.2-1.3-0.2h-1.7V93h1.7c0.5,0,0.9-0.1,1.3-0.2c0.4-0.1,0.7-0.4,1-0.6c0.3-0.3,0.5-0.6,0.6-0.9
				C282,90.9,282.1,90.5,282.1,90.1L282.1,90.1z"/>
			<path class="st2" d="M290.5,91.4c-0.2,0.4-0.4,0.8-0.7,1.1c-0.3,0.3-0.6,0.6-1.1,0.8c-0.4,0.2-0.9,0.3-1.4,0.3
				c-0.5,0-1-0.1-1.4-0.3c-0.4-0.2-0.8-0.4-1.1-0.8c-0.3-0.3-0.5-0.7-0.7-1.1c-0.2-0.4-0.2-0.8-0.2-1.3v0c0-0.5,0.1-0.9,0.2-1.3
				c0.2-0.4,0.4-0.8,0.7-1.1c0.3-0.3,0.6-0.6,1.1-0.8c0.4-0.2,0.9-0.3,1.4-0.3c0.5,0,1,0.1,1.4,0.3c0.4,0.2,0.8,0.4,1.1,0.8
				c0.3,0.3,0.5,0.7,0.7,1.1c0.2,0.4,0.2,0.8,0.2,1.3c0,0,0,0,0,0C290.7,90.5,290.6,91,290.5,91.4z M290.2,90.1
				c0-0.4-0.1-0.8-0.2-1.2c-0.1-0.4-0.3-0.7-0.6-1c-0.3-0.3-0.6-0.5-0.9-0.6c-0.3-0.2-0.7-0.2-1.1-0.2c-0.4,0-0.8,0.1-1.1,0.2
				c-0.3,0.2-0.6,0.4-0.9,0.6c-0.3,0.3-0.4,0.6-0.6,0.9c-0.1,0.4-0.2,0.7-0.2,1.2v0c0,0.4,0.1,0.8,0.2,1.2c0.1,0.4,0.3,0.7,0.6,1
				c0.3,0.3,0.6,0.5,0.9,0.6s0.7,0.2,1.1,0.2c0.4,0,0.8-0.1,1.1-0.2c0.3-0.2,0.6-0.4,0.9-0.6c0.3-0.3,0.4-0.6,0.6-0.9
				C290.1,90.9,290.2,90.5,290.2,90.1L290.2,90.1z"/>
			<path class="st2" d="M296.7,92.4c-0.1,0.2-0.3,0.4-0.5,0.6c-0.2,0.2-0.4,0.3-0.7,0.4c-0.3,0.1-0.6,0.1-0.9,0.1
				c-0.5,0-1-0.1-1.4-0.3c-0.4-0.2-0.8-0.4-1.2-0.8l0.3-0.4c0.2,0.2,0.4,0.3,0.5,0.4c0.2,0.1,0.4,0.2,0.6,0.3
				c0.2,0.1,0.4,0.1,0.6,0.2s0.4,0.1,0.7,0.1c0.2,0,0.5,0,0.7-0.1c0.2-0.1,0.4-0.2,0.5-0.3c0.1-0.1,0.3-0.3,0.3-0.4
				c0.1-0.2,0.1-0.3,0.1-0.5v0c0-0.2,0-0.3-0.1-0.5c-0.1-0.1-0.2-0.3-0.3-0.4c-0.1-0.1-0.3-0.2-0.6-0.3c-0.2-0.1-0.6-0.2-0.9-0.3
				c-0.4-0.1-0.7-0.2-1-0.3c-0.3-0.1-0.5-0.2-0.7-0.4c-0.2-0.1-0.3-0.3-0.4-0.5c-0.1-0.2-0.1-0.4-0.1-0.7v0c0-0.2,0.1-0.5,0.2-0.7
				c0.1-0.2,0.3-0.4,0.4-0.6c0.2-0.2,0.4-0.3,0.7-0.4c0.3-0.1,0.5-0.1,0.9-0.1c0.5,0,0.9,0.1,1.3,0.2c0.4,0.1,0.7,0.3,1,0.6
				l-0.3,0.4c-0.3-0.3-0.6-0.5-1-0.6c-0.3-0.1-0.7-0.2-1-0.2c-0.2,0-0.5,0-0.7,0.1c-0.2,0.1-0.4,0.2-0.5,0.3
				c-0.1,0.1-0.3,0.2-0.3,0.4c-0.1,0.2-0.1,0.3-0.1,0.5v0c0,0.2,0,0.3,0.1,0.5c0.1,0.1,0.2,0.3,0.3,0.4c0.1,0.1,0.3,0.2,0.6,0.3
				c0.3,0.1,0.6,0.2,1,0.3c0.8,0.2,1.3,0.4,1.7,0.7c0.3,0.3,0.5,0.7,0.5,1.2v0C296.8,92,296.8,92.2,296.7,92.4z"/>
		</g>
	</g>
	<path class="st2" d="M122.8,43.4c-0.5-0.2-0.9-0.1-1.2,0.4c-0.4,0.9-1,1.9-1.5,3c-0.5,0.9-1.1,1.9-1.8,3.1
		c-0.7,1.2-1.4,2.4-2.2,3.6c-2.2,3.4-4,5.8-5.5,7.3c-1.5,1.5-2.7,2.5-3.6,3c-0.3,0.2-0.8,0.2-1.4,0c-0.6-0.2-1.2-0.8-1.7-1.8
		c-0.5-1-0.8-2.5-0.9-4.5c-0.1-2,0.4-4.7,1.3-8.1c0.9-3.4,2-6.2,3.2-8.4c1.2-2.2,2.4-4.1,3.5-5.5c1.3-1.7,2.6-3,3.9-3.9
		c0.2,0.5,0.3,1,0.2,1.6c-0.1,0.5-0.2,1-0.3,1.5c-0.1,0.3-0.1,0.5,0.1,0.6c0.2,0.2,0.4,0.2,0.7,0.2c0.7-0.1,1.3-0.3,1.8-0.5
		c0.5-0.2,0.9-0.5,1.2-0.7c0.6-0.6,1-1.3,1.2-1.9c0.1-0.6,0.2-1.2,0.1-1.7c-0.1-0.6-0.3-1.1-0.6-1.6c-0.5-0.6-1.2-1-2.1-1.2
		c-0.9-0.1-2,0.1-3.4,0.8c-1.3,0.6-3,1.7-4.8,3.3c-1.9,1.5-4,3.6-6.4,6.3c-2.4,2.7-4.1,5.3-5.1,7.8c0,0.1,0,0.1-0.1,0.2
		c-0.1,0.2-0.2,0.3-0.3,0.5c-0.5,0.9-1.1,1.9-1.8,3.1c-0.7,1.2-1.4,2.4-2.2,3.6c-2.1,3.4-3.9,5.8-5.4,7.3c-1.5,1.5-2.7,2.5-3.7,3
		c-0.3-0.6-0.3-1.5,0-2.7c0.3-1.2,0.8-2.6,1.5-4.2c0.7-1.6,1.5-3.3,2.4-5c0.9-1.8,1.8-3.5,2.6-5.1c0.6-1.2,0.9-2.4,1.1-3.6
		c0.1-1.1,0-2.2-0.3-3.5c-0.4-1.2-1.2-2.4-2.4-3.5c-0.8-0.6-1.3-1.1-1.7-1.4c-0.3-0.3-0.4-0.5-0.6-0.7c-0.5-0.4-0.7-1-0.5-1.7
		c0.2-0.7,0.5-1.3,1-2c0.4-0.7,0.9-1.3,1.5-1.8c0.5-0.5,1-1,1.3-1.3c0.3-0.3,0.4-0.5,0.3-0.9c0-0.3-0.1-0.8-0.4-1.4
		c-0.4-0.8-0.9-1.3-1.7-1.7c-0.7-0.4-1.5-0.5-2.2-0.5c-0.7,0-1.4,0.3-2.1,0.8c-0.6,0.5-1.1,1.1-1.3,2c-0.3,0.9-0.5,1.7-0.4,2.5
		c0,0.8,0.1,1.5,0.2,2.1c0.2,0.7,0.4,1.4,0.7,2.1c-0.6,1.3-1.2,2.8-1.9,4.3c-0.7,1.5-1.3,2.9-1.9,4.1c-0.6,1.2-4.9,9.6-5.8,11.3
		c-0.2,0.4-0.1,0.8,0.4,1.2c0.4,0.3,0.8,0.1,1.1-0.4c0.6-1.1,4.8-9,5.2-9.9c0.5-0.9,1-2,1.6-3.3c0.6-1.2,1.2-2.5,1.7-3.9
		c1.1,0.5,1.8,1,2.2,1.6c0.4,0.5,0.6,1.1,0.7,1.6c0.1,0.6,0,1.1-0.3,1.6c-1.1,2.3-2.3,4.4-3.5,6.2c-1.3,1.8-2.5,4-3.5,6.7
		c-0.8,1.9-1.2,3.6-1.3,5c-0.1,1.4-0.1,2.7,0.2,3.6c0.3,1,0.7,1.8,1.2,2.4c0.5,0.6,1.1,1,1.7,1.2c0.6,0.3,1.2,0.5,1.8,0.5
		c0.3,0,0.6-0.1,1.2-0.2c3.1-0.9,6.8-4.7,11.1-11.5c0.4-0.6,0.8-1.2,1.1-1.8c0,0.2,0,0.4,0,0.6c-0.1,2.2,0.2,4.1,0.8,5.8
		c0.6,1.7,1.4,3,2.4,4c0.9,1,1.8,1.7,2.7,2.2c0.9,0.4,1.7,0.7,2.4,0.8c0.8,0.2,1.6,0.2,2.3,0c3.1-0.9,6.7-4.7,11-11.5
		c0.8-1.2,1.6-2.4,2.3-3.6c0.7-1.2,1.3-2.2,1.8-3.2c0.5-0.9,1.1-2,1.6-3.1C123.4,44,123.3,43.7,122.8,43.4z"/>
	<path class="st2" d="M165.8,9.5c-1.8,0.3-3,0.5-5.5,0.8c-2.5,0.3-5.6,0.7-9.8,1.6c-2.7,0.6-4.6,1.3-6.6,2.5c-2,1.2-3.7,2.6-5,4.1
		c-1.4,1.6-2.4,3.2-3,5c-0.7,1.8-1,3.5-1,5.3c0,1.2,0.1,2.3,0.4,3.2c0.2,0.9,0.6,1.7,0.9,2.4c0.4,0.7,0.8,1.2,1.2,1.7
		c0.4,0.4,0.8,0.8,1.2,1.1c0.2,0.1,0.3,0.4,0.3,0.6c-0.1,0.3-0.3,0.4-0.5,0.5c-0.9,0.2-1.8,0.2-2.7,0c-0.9-0.2-1.7-0.6-2.4-1
		c-0.7-0.5-1.4-1-1.9-1.7c-0.5-0.7-0.9-1.4-1.2-2.2c-0.2-0.6-0.5-1.5-0.8-2.5c-0.3-1.1-0.3-2.3-0.2-3.6c0.1-1.4,0.6-2.8,1.3-4.5
		c0.8-1.6,2-3.3,3.7-5c1.8-1.8,3.9-3.2,6.2-4.3c2.4-1.1,4.9-1.9,7.7-2.5c2.8-0.6,5.7-1.1,8.8-1.5c3.1-0.4,6.2-0.8,9.3-1.3
		c1.2-0.1,2.4-0.4,3.6-0.6c1.5-0.3,2.9-0.8,4.1-1.3c0.8-0.3,1.6-0.5,2.2-0.7c0.7-0.1,1.3-0.2,1.8-0.2c0.3,0,0.5,0.1,0.7,0.4
		c0.1,0.3,0.1,0.5-0.1,0.8c-1.1,1.1-2.2,2.8-3.3,5.1c-1.1,2.2-2.3,4.9-3.6,7.9c1.1-1.3,2.4-2.6,3.8-4.1c1.4-1.4,2.8-2.7,4.3-3.8
		c1.5-1.1,3-1.9,4.5-2.5c1.5-0.6,2.9-0.7,4.2-0.3c2.5,0.8,4.4,2.4,5.7,4.8c1.3,2.4,2,5.2,2.1,8.4c0.1,3.2-0.5,6.5-1.7,10.1
		c-1.2,3.5-3.1,6.8-5.6,9.9c-1.8,2.2-4,3.9-6.4,5.3c-2.4,1.3-4.9,2.3-7.5,2.9c-2.6,0.6-5.2,0.8-7.9,0.6c-2.6-0.2-5.1-0.7-7.4-1.6
		c1.4,4.3,3,7.8,4.9,10.5c1.8,2.7,3.8,4.9,5.8,6.4c2,1.6,4,2.6,6,3.2c2,0.6,3.9,0.9,5.7,0.9c1.8,0,3.4-0.1,4.8-0.5
		c1.4-0.4,2.5-0.7,3.3-1c0.4-0.1,0.8-0.1,1.1,0.1c0.4,0.2,0.6,0.5,0.8,1c0.4,1.8,0,3.6-1,5.3c-1.1,1.7-2.6,2.9-4.6,3.6
		c-2,0.7-4.4,0.6-7.3-0.3c-2.8-0.9-5.8-3-9-6.4c-2.9-3.1-5.4-6.5-7.3-10c-1.9-3.6-3.5-7-4.7-10.3c-1,1.8-1.8,3.3-2.6,4.6
		c-0.8,1.3-1.5,2.4-2.1,3.3c-0.7,1.1-1.3,2-1.9,2.7c-3.2,4.2-6.4,7.3-9.7,9.2c-3.3,1.9-6.5,3.1-9.6,3.5c-0.5,0.1-0.9-0.2-1.1-0.7
		c-0.2-0.5,0-0.9,0.5-1.1c2.4-1.5,4.8-3.7,7.3-6.7c2.4-3,4.8-6.4,7-10.2c2.3-3.8,4.4-7.8,6.5-12c2.1-4.2,4-8.2,5.7-12.1
		c1.7-3.8,3.3-7.3,4.6-10.5c1.4-3.1,2.5-5.5,3.3-7.2c0.6-1.1,1.2-2.1,1.8-3c0.6-0.9,1.3-1.6,1.9-2.2c-0.7,0.1-1.3,0.2-1.8,0.2
		C167.4,9.3,166.2,9.4,165.8,9.5z M169.2,25.3c-0.5,1.5-1.1,2.9-1.6,4.4c-0.6,1.5-1.1,3-1.7,4.6c-0.9,2.4-1.8,4.7-2.8,6.8
		c-1,2.1-1.9,4.1-2.8,6c2.6,1,5,1.3,7.3,1c2.3-0.3,4.3-0.9,6.3-1.9c1.9-1,3.6-2.2,5.2-3.8c1.5-1.5,2.9-3.1,4-4.8
		c1.1-1.7,2.1-3.3,2.8-4.9c0.7-1.6,1.2-2.9,1.5-4c0.3-0.8,0.5-1.8,0.8-3.1c0.3-1.3,0.5-2.6,0.7-4c0.2-1.4,0.2-2.8,0.2-4.2
		c0-1.4-0.2-2.7-0.5-3.7c-0.3-1.1-0.8-1.8-1.5-2.4c-0.7-0.5-1.6-0.7-2.7-0.3c-1.7,0.4-3.4,1.3-4.9,2.5c-1.6,1.2-3,2.5-4.3,4
		c-1.3,1.5-2.5,2.9-3.5,4.3C170.5,23.4,169.7,24.5,169.2,25.3z"/>
	<path class="st2" d="M296.7,43.1c-0.4-0.3-0.8-0.1-1.1,0.4c-0.5,0.9-1,1.9-1.6,3c-0.5,0.9-1.1,1.9-1.8,3.1
		c-0.7,1.2-1.4,2.4-2.1,3.6c-2.1,3.4-3.9,5.8-5.4,7.3c-1.5,1.5-2.7,2.5-3.7,3c-0.3-0.6-0.3-1.5,0-2.7c0.3-1.2,0.8-2.6,1.5-4.2
		c0.7-1.6,1.5-3.3,2.4-5c0.9-1.7,1.7-3.5,2.6-5.1c0.6-1.2,0.9-2.4,1-3.6c0.1-1.1,0-2.2-0.3-3.4c-0.4-1.2-1.2-2.4-2.4-3.4
		c-0.8-0.6-1.3-1.1-1.7-1.4c-0.3-0.3-0.4-0.5-0.6-0.7c-0.5-0.4-0.7-1-0.5-1.7c0.2-0.7,0.5-1.3,1-2c0.4-0.7,0.9-1.3,1.5-1.8
		c0.5-0.5,1-1,1.3-1.3c0.3-0.3,0.3-0.5,0.3-0.9c0-0.3-0.1-0.8-0.4-1.4c-0.4-0.8-0.9-1.3-1.7-1.7c-0.7-0.3-1.5-0.5-2.2-0.5
		c-0.7,0-1.4,0.3-2.1,0.8c-0.6,0.5-1.1,1.1-1.3,2c-0.3,0.9-0.5,1.7-0.4,2.5c0,0.8,0.1,1.5,0.2,2.1c0.2,0.7,0.4,1.4,0.7,2.1
		c-0.6,1.3-1.2,2.8-1.9,4.2c-0.7,1.5-1.3,2.9-1.9,4.1c-0.6,1.2-1.4,2.7-2.2,4.3c0,0.1-0.1,0.2-0.1,0.3c-0.3,0.5-0.5,1-0.8,1.5
		c-0.5,0.9-1.1,1.9-1.7,3.1c-0.6,1.2-1.3,2.4-2.1,3.6c-2.2,3.4-4,5.8-5.5,7.3c-1.5,1.5-2.7,2.5-3.6,3c-0.3,0.1-0.7,0.1-1.2,0
		c-0.5-0.1-1.1-0.5-1.5-1.1c-0.5-0.6-0.8-1.5-1.1-2.8c-0.3-1.3-0.3-3,0-5.1c0.1-0.6,0.2-1.4,0.4-2.2c0.2-0.8,0.4-1.6,0.6-2.3
		c0.3-0.8,0.5-1.7,0.7-2.6c3.1-0.7,5.7-1.6,7.7-2.6c2-1,3.6-2.2,4.8-3.4c1.2-1.2,2-2.5,2.5-3.8c0.5-1.3,0.7-2.5,0.8-3.6
		c0-1.1-0.1-2.2-0.4-3.1c-0.3-0.9-0.6-1.6-0.9-2c-0.5-0.6-1.2-1-2.1-1.1c-0.9-0.1-2,0.1-3.3,0.8c-1.3,0.6-2.9,1.7-4.8,3.2
		c-1.9,1.5-4,3.6-6.3,6.3c-2.4,2.7-4.1,5.3-5.1,7.7c0,0.1,0,0.1-0.1,0.2c-0.1,0.2-0.2,0.3-0.3,0.5c-0.5,0.9-1.1,1.9-1.7,3.1
		c-0.6,1.2-1.3,2.4-2.1,3.6c-2.2,3.4-4,5.8-5.5,7.3c-1.5,1.5-2.7,2.5-3.6,3c-0.4-0.8-0.3-2.1,0.4-3.9c0.6-1.8,1.5-3.8,2.5-6.1
		c1-2.2,2.2-4.5,3.3-6.7c1.2-2.3,2.1-4.2,2.8-5.9c0.8-1.7,1.1-3.3,1.1-4.7c0-1.4-0.3-2.6-0.7-3.7c-0.4-1.1-0.9-1.9-1.5-2.6
		c-0.6-0.7-1.1-1.2-1.4-1.5c-0.4-0.3-0.7-0.4-1.1-0.3c-0.3,0.2-0.5,0.4-0.6,0.6c-0.1,0.1-0.1,0.3-0.1,0.4c-0.2,2.3-0.6,4.3-1.1,6.1
		c-0.5,1.8-1.2,3.4-1.9,4.9c-0.7,1.5-1.5,2.9-2.4,4.3c-0.9,1.4-1.8,2.8-2.6,4.2c-0.4,0.7-0.9,1.4-1.3,2.2c-0.4,0.8-0.9,1.6-1.4,2.4
		c-2.2,3.4-4,5.8-5.6,7.3c-1.6,1.5-2.9,2.5-3.8,3c-0.4-0.8-0.3-2.1,0.4-3.9c0.6-1.8,1.5-3.8,2.6-6.1c1.1-2.2,2.2-4.5,3.4-6.7
		c1.2-2.3,2.1-4.2,2.8-5.9c0.8-1.7,1.1-3.3,1.1-4.7c-0.1-1.4-0.3-2.6-0.7-3.7c-0.4-1.1-0.9-1.9-1.5-2.6c-0.6-0.7-1-1.2-1.3-1.5
		c-0.4-0.3-0.8-0.4-1.1-0.3c-0.3,0.2-0.5,0.4-0.6,0.6c-0.1,0.1-0.1,0.3-0.1,0.4c-0.2,2.8-0.7,5.2-1.4,7.2c-0.8,2-1.7,3.9-2.7,5.7
		c-1,1.8-2.1,3.5-3.2,5.3c-1.1,1.7-2.1,3.6-3,5.7c-0.8,1.9-1.2,3.6-1.3,5c-0.1,1.4-0.1,2.6,0.2,3.6c0.3,1,0.7,1.8,1.2,2.4
		c0.5,0.6,1.1,1,1.7,1.2c0.6,0.3,1.2,0.5,1.8,0.5c0.3,0,0.6-0.1,1.1-0.2c1.3-0.3,2.7-1.2,4.2-2.5c1.6-1.4,3.2-3.3,4.9-5.7
		c-0.4,1.7-1.1,3.9-2,6.8c-0.9,2.9-2,6-3.2,9.2c-2.6-0.1-5,0-7.3,0.3c-4.8,0.7-8.6,2.4-11.4,5.2c-1.7,1.8-2.8,3.8-3.3,5.9
		c-0.6,2-0.6,4,0,5.9c0.6,2.2,2.1,3.7,4.7,4.5c0.8,0.3,1.6,0.4,2.4,0.4h1c1.7-0.1,3.4-0.7,5.2-1.9c1.7-1.2,3.4-2.7,5-4.5
		c1.6-1.8,3.2-3.9,4.6-6.3c1.5-2.4,2.8-4.8,4.1-7.3c1,0.2,2,0.4,3.1,0.7c0.9,0.2,1.8,0.4,2.7,0.6c0.9,0.2,1.7,0.4,2.4,0.6
		c1.3,0.4,2.5,0.7,3.6,0.9c1.1,0.2,2.1,0.4,2.9,0.5c1,0.2,1.8,0.3,2.6,0.3c2.2,0.2,4,0.1,5.4-0.3c1.4-0.4,2.5-0.9,3.2-1.4
		c0.8-0.6,1.3-1.2,1.5-1.9c0.2-0.7,0.3-1.2,0.2-1.6c-0.1-0.4-0.2-0.5-0.5-0.4c-0.3,0.1-0.8,0.3-1.4,0.7c-0.7,0.3-1.6,0.7-2.8,1.1
		c-1.2,0.4-2.7,0.7-4.6,0.9c-1.7,0.1-3.4,0.2-5.2,0.1c-1.8,0-3.6-0.3-5.4-0.7c-0.6-0.1-1.3-0.3-2.1-0.5c-0.8-0.2-1.5-0.4-2.2-0.5
		c-0.8-0.2-1.7-0.4-2.6-0.5c0.8-1.5,1.5-2.9,2.1-4.4c0.7-1.5,1.3-2.8,1.8-4.1c0.1,0,0.2,0,0.2,0c0,0,0.1,0,0.2,0c0.2,0,0.4,0,0.6,0
		c0.2,0,0.4-0.1,0.7-0.1c3.1-0.9,6.7-4.7,11-11.5c0.4-0.6,0.8-1.2,1.1-1.8c0,0.2,0,0.4,0,0.6c-0.1,2.2,0.2,4.1,0.8,5.7
		c0.6,1.7,1.4,3,2.3,4c0.9,1,1.8,1.7,2.7,2.1c0.9,0.4,1.7,0.7,2.4,0.8c0.8,0.2,1.6,0.2,2.4,0c3.1-0.9,6.7-4.7,11-11.5
		c0.8-1.2,1.5-2.4,2.2-3.6c0.7-1.2,1.3-2.2,1.8-3.2c0.5-0.9,1-1.9,1.6-3.1c0.3-0.6,0.6-1.2,0.9-1.7c0.5-0.9,1-2,1.6-3.2
		c0.6-1.2,1.1-2.5,1.7-3.9c1.1,0.5,1.8,1,2.2,1.6c0.4,0.5,0.6,1.1,0.7,1.6c0.1,0.6,0,1.1-0.3,1.6c-1.1,2.3-2.3,4.3-3.5,6.2
		c-1.3,1.8-2.5,4-3.5,6.6c-0.8,1.9-1.2,3.6-1.3,5c-0.1,1.4-0.1,2.6,0.2,3.6c0.3,1,0.7,1.8,1.2,2.4c0.5,0.6,1.1,1,1.7,1.2
		c0.6,0.3,1.2,0.5,1.8,0.5c0.3,0,0.6-0.1,1.1-0.2c3.1-0.9,6.8-4.7,11.1-11.5c0.8-1.2,1.5-2.4,2.2-3.6c0.7-1.2,1.3-2.2,1.8-3.2
		c0.5-0.9,1-2,1.6-3.1C297.3,43.7,297.2,43.3,296.7,43.1z M261.7,38.6c1.1-1.7,2.1-3.1,3.1-4.2c1.1-1.2,2.2-2.2,3.2-3.1
		c0.1,0.3,0.1,0.7,0,1.1c0,0.4-0.1,0.9-0.1,1.4c-0.1,0.6-0.2,1.1-0.3,1.7c-0.4,1.5-1.1,2.7-1.8,3.8c-0.8,1.1-1.6,2-2.4,2.8
		c-0.9,0.8-1.7,1.4-2.6,1.9s-1.6,0.8-2.1,1.1C259.6,42.5,260.7,40.3,261.7,38.6z M221.6,81.9c-1.1,2.3-2.3,4.3-3.6,6.1
		c-1.2,1.7-2.5,3.2-3.8,4.2c-1.3,1.1-2.6,1.6-4,1.5c-0.3-0.1-0.5-0.1-0.9-0.1c-0.3,0-0.6-0.1-1-0.2c-1.9-0.6-3.1-1.7-3.5-3.3
		c-0.5-1.6-0.5-3.3,0-5.1c0.4-1.8,1.4-3.6,3-5.2c0.6-0.6,1.3-1.2,2.3-1.8c1-0.6,2.1-1.2,3.4-1.7c1.3-0.5,2.9-0.9,4.8-1.2
		c1.8-0.3,4-0.4,6.4-0.2C223.8,77.3,222.8,79.6,221.6,81.9z"/>
	<path class="st2" d="M214.3,27.9c1.2,1,2.1,2.5,2.8,4.3c0.5,1.6,0.7,3.7,0.6,6.3c-0.1,2.6-0.9,5.9-2.3,9.7
		c-1.6,4.1-3.3,7.4-5.1,9.7c-1.8,2.3-3.5,4-5.1,5.1c-1.8,1.3-3.7,2.1-5.6,2.4c-0.7,0.2-1.4,0.2-2.2,0c-0.7-0.1-1.4-0.4-2.2-0.8
		c-0.8-0.4-1.6-1.1-2.4-2.1c-0.8-1-1.5-2.5-1.9-4.4c-0.4-1.9-0.5-4.1-0.2-6.5c0.3-2.4,1-5,2.1-7.7c1.1-2.7,2.9-5.4,5.3-8.1
		c1.9-2.1,3.6-3.8,5-5.1c1.4-1.3,2.7-2.2,3.9-2.8c1.1-0.6,2.2-1,3.1-1.1c0.9-0.1,1.7-0.1,2.4,0.1C213.1,27.1,213.8,27.4,214.3,27.9z
		 M212.1,47.9c0.8-2,1.4-4.1,1.9-6.1c0.5-2,0.8-3.8,1-5.5c0.2-1.7,0.2-3,0-4.2c-0.2-1.1-0.5-1.8-1-2.1c-0.5-0.2-1-0.2-1.5-0.1
		c-0.5,0.1-1,0.2-1.5,0.4c-0.6,0.3-1.1,0.5-1.6,0.9c-1.3,1-2.6,2.3-3.9,3.9c-1.1,1.4-2.3,3.2-3.5,5.4c-1.3,2.2-2.5,5-3.5,8.4
		c-1,3.2-1.6,5.7-1.7,7.7c-0.1,1.9,0,3.4,0.4,4.4c0.4,1,0.9,1.6,1.5,1.9c0.6,0.3,1.1,0.4,1.5,0.3c1.3-0.1,2.6-0.6,3.7-1.5
		c1.1-0.9,2.1-2,3.1-3.4c1-1.4,1.8-3,2.7-4.8C210.4,51.9,211.3,50,212.1,47.9z"/>
	<g>
		<defs>
			<path id="SVGID_6_" d="M213.9,27.5c1.2,1,2.1,2.5,2.8,4.3c0.5,1.6,0.7,3.7,0.6,6.3c-0.1,2.6-0.9,5.9-2.3,9.7
				c-1.6,4.1-3.3,7.4-5.1,9.7c-1.8,2.3-3.5,4-5.1,5.1c-1.8,1.3-3.7,2.1-5.6,2.4c-0.7,0.2-1.4,0.2-2.2,0c-0.7-0.1-1.4-0.4-2.2-0.8
				c-0.8-0.4-1.6-1.1-2.4-2.1c-0.8-1-1.5-2.5-1.9-4.4c-0.4-1.9-0.5-4.1-0.2-6.5c0.3-2.4,1-5,2.1-7.7c1.1-2.7,2.9-5.4,5.3-8.1
				c1.9-2.1,3.6-3.8,5-5.1c1.4-1.3,2.7-2.2,3.9-2.8c1.1-0.6,2.2-1,3.1-1.1c0.9-0.1,1.7-0.1,2.4,0.1
				C212.8,26.8,213.4,27.1,213.9,27.5z M211.7,47.6c0.8-2,1.4-4.1,1.9-6.1c0.5-2,0.8-3.8,1-5.5c0.2-1.7,0.2-3,0-4.2
				c-0.2-1.1-0.5-1.8-1-2.1c-0.5-0.2-1-0.2-1.5-0.1c-0.5,0.1-1,0.2-1.5,0.4c-0.6,0.3-1.1,0.5-1.6,0.9c-1.3,1-2.6,2.3-3.9,3.9
				c-1.1,1.4-2.3,3.2-3.5,5.4c-1.3,2.2-2.5,5-3.5,8.4c-1,3.2-1.6,5.7-1.7,7.7c-0.1,1.9,0,3.4,0.4,4.4c0.4,1,0.9,1.6,1.5,1.9
				c0.6,0.3,1.1,0.4,1.5,0.3c1.3-0.1,2.6-0.6,3.7-1.5c1.1-0.9,2.1-2,3.1-3.4c1-1.4,1.8-3,2.7-4.8C210.1,51.5,210.9,49.6,211.7,47.6z
				"/>
		</defs>
		<clipPath id="SVGID_7_">
			<use xlink:href="#SVGID_6_"  style="overflow:visible;"/>
		</clipPath>
		<linearGradient id="SVGID_8_" gradientUnits="userSpaceOnUse" x1="114.3878" y1="50.4277" x2="301.1684" y2="50.4277">
			<stop  offset="0" style="stop-color:#95866A"/>
			<stop  offset="0.507" style="stop-color:#DAD2B3"/>
			<stop  offset="1" style="stop-color:#95866A"/>
		</linearGradient>
		<rect x="114.4" y="-16.2" class="st3" width="186.8" height="133.2"/>
	</g>
	<g>
		<defs>
			<path id="SVGID_9_" d="M165.5,9.1c-1.8,0.3-3,0.5-5.5,0.8c-2.5,0.3-5.6,0.7-9.8,1.6c-2.7,0.6-4.6,1.3-6.6,2.5
				c-2,1.2-3.7,2.6-5,4.1c-1.4,1.6-2.4,3.2-3,5c-0.7,1.8-1,3.5-1,5.3c0,1.2,0.1,2.3,0.4,3.2c0.2,0.9,0.6,1.7,0.9,2.4
				c0.4,0.7,0.8,1.2,1.2,1.7c0.4,0.4,0.8,0.8,1.2,1.1c0.2,0.1,0.3,0.4,0.3,0.6c-0.1,0.3-0.3,0.4-0.5,0.5c-0.9,0.2-1.8,0.2-2.7,0
				c-0.9-0.2-1.7-0.6-2.4-1c-0.7-0.5-1.4-1-1.9-1.7c-0.5-0.7-0.9-1.4-1.2-2.2c-0.2-0.6-0.5-1.5-0.8-2.5c-0.3-1.1-0.3-2.3-0.2-3.6
				c0.1-1.4,0.6-2.8,1.3-4.5c0.8-1.6,2-3.3,3.7-5c1.8-1.8,3.9-3.2,6.2-4.3c2.4-1.1,4.9-1.9,7.7-2.5c2.8-0.6,5.7-1.1,8.8-1.5
				c3.1-0.4,6.2-0.8,9.3-1.3c1.2-0.1,2.4-0.4,3.6-0.6c1.5-0.3,2.9-0.8,4.1-1.3c0.8-0.3,1.6-0.5,2.2-0.7c0.7-0.1,1.3-0.2,1.8-0.2
				c0.3,0,0.5,0.1,0.7,0.4c0.1,0.3,0.1,0.5-0.1,0.8c-1.1,1.1-2.2,2.8-3.3,5.1c-1.1,2.2-2.3,4.9-3.6,7.9c1.1-1.3,2.4-2.6,3.8-4.1
				c1.4-1.4,2.8-2.7,4.3-3.8c1.5-1.1,3-1.9,4.5-2.5c1.5-0.6,2.9-0.7,4.2-0.3c2.5,0.8,4.4,2.4,5.7,4.8c1.3,2.4,2,5.2,2.1,8.4
				c0.1,3.2-0.5,6.5-1.7,10.1c-1.2,3.5-3.1,6.8-5.6,9.9c-1.8,2.2-4,3.9-6.4,5.3c-2.4,1.3-4.9,2.3-7.5,2.9c-2.6,0.6-5.2,0.8-7.9,0.6
				c-2.6-0.2-5.1-0.7-7.4-1.6c1.4,4.3,3,7.8,4.9,10.5c1.8,2.7,3.8,4.9,5.8,6.4c2,1.6,4,2.6,6,3.2c2,0.6,3.9,0.9,5.7,0.9
				c1.8,0,3.4-0.1,4.8-0.5c1.4-0.4,2.5-0.7,3.3-1c0.4-0.1,0.8-0.1,1.1,0.1c0.4,0.2,0.6,0.5,0.8,1c0.4,1.8,0,3.6-1,5.3
				c-1.1,1.7-2.6,2.9-4.6,3.6c-2,0.7-4.4,0.6-7.3-0.3c-2.8-0.9-5.8-3-9-6.4c-2.9-3.1-5.4-6.5-7.3-10c-1.9-3.6-3.5-7-4.7-10.3
				c-1,1.8-1.8,3.3-2.6,4.6c-0.8,1.3-1.5,2.4-2.1,3.3c-0.7,1.1-1.3,2-1.9,2.7c-3.2,4.2-6.4,7.3-9.7,9.2c-3.3,1.9-6.5,3.1-9.6,3.5
				c-0.5,0.1-0.9-0.2-1.1-0.7c-0.2-0.5,0-0.9,0.5-1.1c2.4-1.5,4.8-3.7,7.3-6.7c2.4-3,4.8-6.4,7-10.2c2.3-3.8,4.4-7.8,6.5-12
				c2.1-4.2,4-8.2,5.7-12.1c1.7-3.8,3.3-7.3,4.6-10.5c1.4-3.1,2.5-5.5,3.3-7.2c0.6-1.1,1.2-2.1,1.8-3c0.6-0.9,1.3-1.6,1.9-2.2
				c-0.7,0.1-1.3,0.2-1.8,0.2C167.1,8.9,165.9,9.1,165.5,9.1z M168.9,25c-0.5,1.5-1.1,2.9-1.6,4.4c-0.6,1.5-1.1,3-1.7,4.6
				c-0.9,2.4-1.8,4.7-2.8,6.8c-1,2.1-1.9,4.1-2.8,6c2.6,1,5,1.3,7.3,1c2.3-0.3,4.3-0.9,6.3-1.9c1.9-1,3.6-2.2,5.2-3.8
				c1.5-1.5,2.9-3.1,4-4.8c1.1-1.7,2.1-3.3,2.8-4.9c0.7-1.6,1.2-2.9,1.5-4c0.3-0.8,0.5-1.8,0.8-3.1c0.3-1.3,0.5-2.6,0.7-4
				c0.2-1.4,0.2-2.8,0.2-4.2c0-1.4-0.2-2.7-0.5-3.7c-0.3-1.1-0.8-1.8-1.5-2.4c-0.7-0.5-1.6-0.7-2.7-0.3c-1.7,0.4-3.4,1.3-4.9,2.5
				c-1.6,1.2-3,2.5-4.3,4c-1.3,1.5-2.5,2.9-3.5,4.3C170.1,23,169.4,24.1,168.9,25z"/>
		</defs>
		<clipPath id="SVGID_10_">
			<use xlink:href="#SVGID_9_"  style="overflow:visible;"/>
		</clipPath>
		<linearGradient id="SVGID_11_" gradientUnits="userSpaceOnUse" x1="114.3878" y1="50.4277" x2="301.1684" y2="50.4277">
			<stop  offset="0" style="stop-color:#95866A"/>
			<stop  offset="0.507" style="stop-color:#DAD2B3"/>
			<stop  offset="1" style="stop-color:#95866A"/>
		</linearGradient>
		<rect x="114.4" y="-16.2" class="st4" width="186.8" height="133.2"/>
	</g>
	<g>
		<defs>
			<path id="SVGID_12_" d="M296.3,42.7c-0.4-0.3-0.8-0.1-1.1,0.4c-0.5,0.9-1,1.9-1.6,3c-0.5,0.9-1.1,1.9-1.8,3.1
				c-0.7,1.2-1.4,2.4-2.1,3.6c-2.1,3.4-3.9,5.8-5.4,7.3c-1.5,1.5-2.7,2.5-3.7,3c-0.3-0.6-0.3-1.5,0-2.7c0.3-1.2,0.8-2.6,1.5-4.2
				c0.7-1.6,1.5-3.3,2.4-5c0.9-1.7,1.7-3.5,2.6-5.1c0.6-1.2,0.9-2.4,1-3.6c0.1-1.1,0-2.2-0.3-3.4c-0.4-1.2-1.2-2.4-2.4-3.4
				c-0.8-0.6-1.3-1.1-1.7-1.4c-0.3-0.3-0.4-0.5-0.6-0.7c-0.5-0.4-0.7-1-0.5-1.7c0.2-0.7,0.5-1.3,1-2c0.4-0.7,0.9-1.3,1.5-1.8
				c0.5-0.5,1-1,1.3-1.3c0.3-0.3,0.3-0.5,0.3-0.9c0-0.3-0.1-0.8-0.4-1.4c-0.4-0.8-0.9-1.3-1.7-1.7c-0.7-0.3-1.5-0.5-2.2-0.5
				c-0.7,0-1.4,0.3-2.1,0.8c-0.6,0.5-1.1,1.1-1.3,2c-0.3,0.9-0.5,1.7-0.4,2.5c0,0.8,0.1,1.5,0.2,2.1c0.2,0.7,0.4,1.4,0.7,2.1
				c-0.6,1.3-1.2,2.8-1.9,4.2c-0.7,1.5-1.3,2.9-1.9,4.1c-0.6,1.2-1.4,2.7-2.2,4.3c0,0.1-0.1,0.2-0.1,0.3c-0.3,0.5-0.5,1-0.8,1.5
				c-0.5,0.9-1.1,1.9-1.7,3.1c-0.6,1.2-1.3,2.4-2.1,3.6c-2.2,3.4-4,5.8-5.5,7.3c-1.5,1.5-2.7,2.5-3.6,3c-0.3,0.1-0.7,0.1-1.2,0
				c-0.5-0.1-1.1-0.5-1.5-1.1c-0.5-0.6-0.8-1.5-1.1-2.8c-0.3-1.3-0.3-3,0-5.1c0.1-0.6,0.2-1.4,0.4-2.2c0.2-0.8,0.4-1.6,0.6-2.3
				c0.3-0.8,0.5-1.7,0.7-2.6c3.1-0.7,5.7-1.6,7.7-2.6c2-1,3.6-2.2,4.8-3.4c1.2-1.2,2-2.5,2.5-3.8c0.5-1.3,0.7-2.5,0.8-3.6
				c0-1.1-0.1-2.2-0.4-3.1c-0.3-0.9-0.6-1.6-0.9-2c-0.5-0.6-1.2-1-2.1-1.1c-0.9-0.1-2,0.1-3.3,0.8c-1.3,0.6-2.9,1.7-4.8,3.2
				c-1.9,1.5-4,3.6-6.3,6.3c-2.4,2.7-4.1,5.3-5.1,7.7c0,0.1,0,0.1-0.1,0.2c-0.1,0.2-0.2,0.3-0.3,0.5c-0.5,0.9-1.1,1.9-1.7,3.1
				c-0.6,1.2-1.3,2.4-2.1,3.6c-2.2,3.4-4,5.8-5.5,7.3c-1.5,1.5-2.7,2.5-3.6,3c-0.4-0.8-0.3-2.1,0.4-3.9c0.6-1.8,1.5-3.8,2.5-6.1
				c1-2.2,2.2-4.5,3.3-6.7c1.2-2.3,2.1-4.2,2.8-5.9c0.8-1.7,1.1-3.3,1.1-4.7c0-1.4-0.3-2.6-0.7-3.7c-0.4-1.1-0.9-1.9-1.5-2.6
				c-0.6-0.7-1.1-1.2-1.4-1.5c-0.4-0.3-0.7-0.4-1.1-0.3c-0.3,0.2-0.5,0.4-0.6,0.6c-0.1,0.1-0.1,0.3-0.1,0.4
				c-0.2,2.3-0.6,4.3-1.1,6.1c-0.5,1.8-1.2,3.4-1.9,4.9c-0.7,1.5-1.5,2.9-2.4,4.3c-0.9,1.4-1.8,2.8-2.6,4.2
				c-0.4,0.7-0.9,1.4-1.3,2.2c-0.4,0.8-0.9,1.6-1.4,2.4c-2.2,3.4-4,5.8-5.6,7.3c-1.6,1.5-2.9,2.5-3.8,3c-0.4-0.8-0.3-2.1,0.4-3.9
				c0.6-1.8,1.5-3.8,2.6-6.1c1.1-2.2,2.2-4.5,3.4-6.7c1.2-2.3,2.1-4.2,2.8-5.9c0.8-1.7,1.1-3.3,1.1-4.7c-0.1-1.4-0.3-2.6-0.7-3.7
				c-0.4-1.1-0.9-1.9-1.5-2.6c-0.6-0.7-1-1.2-1.3-1.5c-0.4-0.3-0.8-0.4-1.1-0.3c-0.3,0.2-0.5,0.4-0.6,0.6c-0.1,0.1-0.1,0.3-0.1,0.4
				c-0.2,2.8-0.7,5.2-1.4,7.2c-0.8,2-1.7,3.9-2.7,5.7c-1,1.8-2.1,3.5-3.2,5.3c-1.1,1.7-2.1,3.6-3,5.7c-0.8,1.9-1.2,3.6-1.3,5
				c-0.1,1.4-0.1,2.6,0.2,3.6c0.3,1,0.7,1.8,1.2,2.4c0.5,0.6,1.1,1,1.7,1.2c0.6,0.3,1.2,0.5,1.8,0.5c0.3,0,0.6-0.1,1.1-0.2
				c1.3-0.3,2.7-1.2,4.2-2.5c1.6-1.4,3.2-3.3,4.9-5.7c-0.4,1.7-1.1,3.9-2,6.8c-0.9,2.9-2,6-3.2,9.2c-2.6-0.1-5,0-7.3,0.3
				c-4.8,0.7-8.6,2.4-11.4,5.2c-1.7,1.8-2.8,3.8-3.3,5.9c-0.6,2-0.6,4,0,5.9c0.6,2.2,2.1,3.7,4.7,4.5c0.8,0.3,1.6,0.4,2.4,0.4h1
				c1.7-0.1,3.4-0.7,5.2-1.9c1.7-1.2,3.4-2.7,5-4.5c1.6-1.8,3.2-3.9,4.6-6.3c1.5-2.4,2.8-4.8,4.1-7.3c1,0.2,2,0.4,3.1,0.7
				c0.9,0.2,1.8,0.4,2.7,0.6c0.9,0.2,1.7,0.4,2.4,0.6c1.3,0.4,2.5,0.7,3.6,0.9c1.1,0.2,2.1,0.4,2.9,0.5c1,0.2,1.8,0.3,2.6,0.3
				c2.2,0.2,4,0.1,5.4-0.3c1.4-0.4,2.5-0.9,3.2-1.4c0.8-0.6,1.3-1.2,1.5-1.9c0.2-0.7,0.3-1.2,0.2-1.6c-0.1-0.4-0.2-0.5-0.5-0.4
				c-0.3,0.1-0.8,0.3-1.4,0.7c-0.7,0.3-1.6,0.7-2.8,1.1c-1.2,0.4-2.7,0.7-4.6,0.9c-1.7,0.1-3.4,0.2-5.2,0.1c-1.8,0-3.6-0.3-5.4-0.7
				c-0.6-0.1-1.3-0.3-2.1-0.5c-0.8-0.2-1.5-0.4-2.2-0.5c-0.8-0.2-1.7-0.4-2.6-0.5c0.8-1.5,1.5-2.9,2.1-4.4c0.7-1.5,1.3-2.8,1.8-4.1
				c0.1,0,0.2,0,0.2,0c0,0,0.1,0,0.2,0c0.2,0,0.4,0,0.6,0c0.2,0,0.4-0.1,0.7-0.1c3.1-0.9,6.7-4.7,11-11.5c0.4-0.6,0.8-1.2,1.1-1.8
				c0,0.2,0,0.4,0,0.6c-0.1,2.2,0.2,4.1,0.8,5.7c0.6,1.7,1.4,3,2.3,4c0.9,1,1.8,1.7,2.7,2.1c0.9,0.4,1.7,0.7,2.4,0.8
				c0.8,0.2,1.6,0.2,2.4,0c3.1-0.9,6.7-4.7,11-11.5c0.8-1.2,1.5-2.4,2.2-3.6c0.7-1.2,1.3-2.2,1.8-3.2c0.5-0.9,1-1.9,1.6-3.1
				c0.3-0.6,0.6-1.2,0.9-1.7c0.5-0.9,1-2,1.6-3.2c0.6-1.2,1.1-2.5,1.7-3.9c1.1,0.5,1.8,1,2.2,1.6c0.4,0.5,0.6,1.1,0.7,1.6
				c0.1,0.6,0,1.1-0.3,1.6c-1.1,2.3-2.3,4.3-3.5,6.2c-1.3,1.8-2.5,4-3.5,6.6c-0.8,1.9-1.2,3.6-1.3,5c-0.1,1.4-0.1,2.6,0.2,3.6
				c0.3,1,0.7,1.8,1.2,2.4c0.5,0.6,1.1,1,1.7,1.2c0.6,0.3,1.2,0.5,1.8,0.5c0.3,0,0.6-0.1,1.1-0.2c3.1-0.9,6.8-4.7,11.1-11.5
				c0.8-1.2,1.5-2.4,2.2-3.6c0.7-1.2,1.3-2.2,1.8-3.2c0.5-0.9,1-2,1.6-3.1C297,43.3,296.8,43,296.3,42.7z M261.4,38.2
				c1.1-1.7,2.1-3.1,3.1-4.2c1.1-1.2,2.2-2.2,3.2-3.1c0.1,0.3,0.1,0.7,0,1.1c0,0.4-0.1,0.9-0.1,1.4c-0.1,0.6-0.2,1.1-0.3,1.7
				c-0.4,1.5-1.1,2.7-1.8,3.8c-0.8,1.1-1.6,2-2.4,2.8s-1.7,1.4-2.6,1.9c-0.9,0.5-1.6,0.8-2.1,1.1C259.3,42.1,260.3,39.9,261.4,38.2z
				 M221.3,81.6c-1.1,2.3-2.3,4.3-3.6,6.1c-1.2,1.7-2.5,3.2-3.8,4.2c-1.3,1.1-2.6,1.6-4,1.5c-0.3-0.1-0.5-0.1-0.9-0.1
				c-0.3,0-0.6-0.1-1-0.2c-1.9-0.6-3.1-1.7-3.5-3.3c-0.5-1.6-0.5-3.3,0-5.1c0.4-1.8,1.4-3.6,3-5.2c0.6-0.6,1.3-1.2,2.3-1.8
				c1-0.6,2.1-1.2,3.4-1.7c1.3-0.5,2.9-0.9,4.8-1.2c1.8-0.3,4-0.4,6.4-0.2C223.5,76.9,222.4,79.3,221.3,81.6z"/>
		</defs>
		<clipPath id="SVGID_13_">
			<use xlink:href="#SVGID_12_"  style="overflow:visible;"/>
		</clipPath>
		<linearGradient id="SVGID_14_" gradientUnits="userSpaceOnUse" x1="114.3878" y1="50.4277" x2="301.1684" y2="50.4277">
			<stop  offset="0" style="stop-color:#95866A"/>
			<stop  offset="0.4998" style="stop-color:#BAAE9B"/>
			<stop  offset="1" style="stop-color:#95866A"/>
		</linearGradient>
		<rect x="114.4" y="-16.2" class="st5" width="186.8" height="133.2"/>
		<linearGradient id="SVGID_15_" gradientUnits="userSpaceOnUse" x1="114.3878" y1="50.4277" x2="301.1684" y2="50.4277">
			<stop  offset="0" style="stop-color:#95866A"/>
			<stop  offset="0.507" style="stop-color:#DAD2B3"/>
			<stop  offset="1" style="stop-color:#95866A"/>
		</linearGradient>
		<rect x="114.4" y="-16.2" class="st6" width="186.8" height="133.2"/>
	</g>
	<g>
		<defs>
			<path id="SVGID_16_" d="M122.5,43.1c-0.5-0.2-0.9-0.1-1.2,0.4c-0.4,0.9-1,1.9-1.5,3c-0.5,0.9-1.1,1.9-1.8,3.1
				c-0.7,1.2-1.4,2.4-2.2,3.6c-2.2,3.4-4,5.8-5.5,7.3c-1.5,1.5-2.7,2.5-3.6,3c-0.3,0.2-0.8,0.2-1.4,0c-0.6-0.2-1.2-0.8-1.7-1.8
				c-0.5-1-0.8-2.5-0.9-4.5c-0.1-2,0.4-4.7,1.3-8.1c0.9-3.4,2-6.2,3.2-8.4c1.2-2.2,2.4-4.1,3.5-5.5c1.3-1.7,2.6-3,3.9-3.9
				c0.2,0.5,0.3,1,0.2,1.6c-0.1,0.5-0.2,1-0.3,1.5c-0.1,0.3-0.1,0.5,0.1,0.6c0.2,0.2,0.4,0.2,0.7,0.2c0.7-0.1,1.3-0.3,1.8-0.5
				c0.5-0.2,0.9-0.5,1.2-0.7c0.6-0.6,1-1.3,1.2-1.9c0.1-0.6,0.2-1.2,0.1-1.7c-0.1-0.6-0.3-1.1-0.6-1.6c-0.5-0.6-1.2-1-2.1-1.2
				c-0.9-0.1-2,0.1-3.4,0.8c-1.3,0.6-3,1.7-4.8,3.3c-1.9,1.5-4,3.6-6.4,6.3c-2.4,2.7-4.1,5.3-5.1,7.8c0,0.1,0,0.1-0.1,0.2
				c-0.1,0.2-0.2,0.3-0.3,0.5c-0.5,0.9-1.1,1.9-1.8,3.1c-0.7,1.2-1.4,2.4-2.2,3.6c-2.1,3.4-3.9,5.8-5.4,7.3c-1.5,1.5-2.7,2.5-3.7,3
				c-0.3-0.6-0.3-1.5,0-2.7c0.3-1.2,0.8-2.6,1.5-4.2c0.7-1.6,1.5-3.3,2.4-5c0.9-1.8,1.8-3.5,2.6-5.1c0.6-1.2,0.9-2.4,1.1-3.6
				c0.1-1.1,0-2.2-0.3-3.5c-0.4-1.2-1.2-2.4-2.4-3.5c-0.8-0.6-1.3-1.1-1.7-1.4c-0.3-0.3-0.4-0.5-0.6-0.7c-0.5-0.4-0.7-1-0.5-1.7
				c0.2-0.7,0.5-1.3,1-2c0.4-0.7,0.9-1.3,1.5-1.8c0.5-0.5,1-1,1.3-1.3c0.3-0.3,0.4-0.5,0.3-0.9c0-0.3-0.1-0.8-0.4-1.4
				c-0.4-0.8-0.9-1.3-1.7-1.7c-0.7-0.4-1.5-0.5-2.2-0.5c-0.7,0-1.4,0.3-2.1,0.8c-0.6,0.5-1.1,1.1-1.3,2c-0.3,0.9-0.5,1.7-0.4,2.5
				c0,0.8,0.1,1.5,0.2,2.1c0.2,0.7,0.4,1.4,0.7,2.1c-0.6,1.3-1.2,2.8-1.9,4.3c-0.7,1.5-1.3,2.9-1.9,4.1c-0.6,1.2-4.9,9.6-5.8,11.3
				c-0.2,0.4-0.1,0.8,0.4,1.2c0.4,0.3,0.8,0.1,1.1-0.4c0.6-1.1,4.8-9,5.2-9.9c0.5-0.9,1-2,1.6-3.3c0.6-1.2,1.2-2.5,1.7-3.9
				c1.1,0.5,1.8,1,2.2,1.6c0.4,0.5,0.6,1.1,0.7,1.6c0.1,0.6,0,1.1-0.3,1.6c-1.1,2.3-2.3,4.4-3.5,6.2c-1.3,1.8-2.5,4-3.5,6.7
				c-0.8,1.9-1.2,3.6-1.3,5c-0.1,1.4-0.1,2.7,0.2,3.6c0.3,1,0.7,1.8,1.2,2.4c0.5,0.6,1.1,1,1.7,1.2c0.6,0.3,1.2,0.5,1.8,0.5
				c0.3,0,0.6-0.1,1.2-0.2c3.1-0.9,6.8-4.7,11.1-11.5c0.4-0.6,0.8-1.2,1.1-1.8c0,0.2,0,0.4,0,0.6c-0.1,2.2,0.2,4.1,0.8,5.8
				c0.6,1.7,1.4,3,2.4,4c0.9,1,1.8,1.7,2.7,2.2c0.9,0.4,1.7,0.7,2.4,0.8c0.8,0.2,1.6,0.2,2.3,0c3.1-0.9,6.7-4.7,11-11.5
				c0.8-1.2,1.6-2.4,2.3-3.6c0.7-1.2,1.3-2.2,1.8-3.2c0.5-0.9,1.1-2,1.6-3.1C123.1,43.7,123,43.4,122.5,43.1z"/>
		</defs>
		<clipPath id="SVGID_17_">
			<use xlink:href="#SVGID_16_"  style="overflow:visible;"/>
		</clipPath>
		<linearGradient id="SVGID_18_" gradientUnits="userSpaceOnUse" x1="-2.5176" y1="52.9347" x2="125.308" y2="52.9347">
			<stop  offset="0" style="stop-color:#95866A"/>
			<stop  offset="0.507" style="stop-color:#DAD2B3"/>
			<stop  offset="1" style="stop-color:#95866A"/>
		</linearGradient>
		<rect x="-2.5" y="-13.7" class="st7" width="127.8" height="133.2"/>
	</g>
</g>
</svg>
