<?xml version="1.0" encoding="utf-8"?>
<!-- Generator: Adobe Illustrator 19.2.0, SVG Export Plug-In . SVG Version: 6.00 Build 0)  -->
<svg version="1.1" id="Layer_1" xmlns="http://www.w3.org/2000/svg" xmlns:xlink="http://www.w3.org/1999/xlink" x="0px" y="0px"
	 viewBox="0 0 880 290.3" style="enable-background:new 0 0 880 290.3;" xml:space="preserve">
<style type="text/css">
	.st0{fill:#FFFFFF;}
	.st1{clip-path:url(#SVGID_2_);fill:#FFFFFF;}
</style>
<g>
	<g>
		<g>
			<path class="st0" d="M691.4,271.2l-2.4-5.3h-11.1l-2.4,5.3H674l8.8-19h1.3l8.8,19H691.4z M683.5,253.7l-5,10.9h9.9L683.5,253.7z"
				/>
			<path class="st0" d="M712.5,265.5c-0.5,1.2-1.2,2.1-2.1,3c-0.9,0.8-1.9,1.5-3.2,2s-2.6,0.7-4.1,0.7h-6.3v-18.9h6.3
				c1.5,0,2.8,0.2,4.1,0.7s2.3,1.1,3.2,2c0.9,0.8,1.6,1.8,2.1,3c0.5,1.1,0.7,2.4,0.7,3.7v0.1C713.2,263.1,713,264.3,712.5,265.5z
				 M711.8,261.7c0-1.1-0.2-2.2-0.6-3.2c-0.4-1-1-1.9-1.7-2.6c-0.7-0.7-1.6-1.3-2.7-1.8c-1.1-0.4-2.2-0.6-3.6-0.6h-4.9v16.3h4.9
				c1.3,0,2.5-0.2,3.6-0.6c1.1-0.4,2-1,2.7-1.7c0.7-0.7,1.3-1.6,1.7-2.6C711.6,264,711.8,262.9,711.8,261.7L711.8,261.7z"/>
			<path class="st0" d="M724.7,271.3h-1.2l-8.3-19h1.6l7.4,17.4l7.4-17.4h1.5L724.7,271.3z"/>
			<path class="st0" d="M753.4,265.5c-0.5,1.2-1.1,2.2-1.9,3.1c-0.8,0.9-1.8,1.6-3,2.1c-1.2,0.5-2.5,0.8-3.9,0.8
				c-1.4,0-2.7-0.3-3.9-0.8c-1.2-0.5-2.2-1.2-3-2.1c-0.8-0.9-1.5-1.9-1.9-3.1c-0.4-1.2-0.7-2.4-0.7-3.7v-0.1c0-1.3,0.2-2.5,0.7-3.7
				c0.5-1.2,1.1-2.2,1.9-3.1c0.8-0.9,1.8-1.6,3-2.1c1.2-0.5,2.5-0.8,3.9-0.8c1.4,0,2.7,0.3,3.9,0.8c1.2,0.5,2.2,1.2,3,2.1
				c0.8,0.9,1.5,1.9,1.9,3.1c0.4,1.2,0.7,2.4,0.7,3.7c0,0,0,0,0,0.1C754,263,753.8,264.3,753.4,265.5z M752.6,261.7
				c0-1.2-0.2-2.3-0.6-3.3c-0.4-1-1-1.9-1.7-2.7c-0.7-0.8-1.6-1.4-2.5-1.8c-1-0.4-2.1-0.7-3.2-0.7c-1.2,0-2.2,0.2-3.2,0.7
				c-1,0.4-1.8,1-2.5,1.8c-0.7,0.8-1.3,1.7-1.7,2.7s-0.6,2.1-0.6,3.3v0.1c0,1.2,0.2,2.3,0.6,3.3c0.4,1,1,1.9,1.7,2.7
				c0.7,0.8,1.6,1.4,2.5,1.8c1,0.4,2.1,0.7,3.2,0.7c1.2,0,2.2-0.2,3.2-0.7c1-0.4,1.8-1,2.5-1.8c0.7-0.8,1.3-1.7,1.7-2.7
				S752.6,263,752.6,261.7L752.6,261.7z"/>
			<path class="st0" d="M771.7,270.7c-1.3,0.6-2.7,0.8-4.2,0.8c-1.5,0-2.8-0.3-4-0.8c-1.2-0.5-2.2-1.2-3-2.1
				c-0.8-0.9-1.4-1.9-1.9-3.1c-0.4-1.2-0.6-2.4-0.6-3.8v-0.1c0-1.3,0.2-2.5,0.7-3.7c0.4-1.2,1.1-2.2,1.9-3.1c0.8-0.9,1.8-1.6,3-2.2
				c1.1-0.5,2.4-0.8,3.8-0.8c0.8,0,1.5,0.1,2.1,0.2c0.6,0.1,1.2,0.3,1.8,0.5c0.5,0.2,1.1,0.5,1.6,0.8c0.5,0.3,1,0.7,1.4,1.1
				l-0.9,1.1c-0.7-0.6-1.6-1.2-2.5-1.6c-0.9-0.4-2.1-0.6-3.5-0.6c-1.2,0-2.2,0.2-3.2,0.7c-1,0.4-1.8,1.1-2.5,1.8
				c-0.7,0.8-1.2,1.7-1.6,2.7c-0.4,1-0.6,2.1-0.6,3.2v0.1c0,1.2,0.2,2.3,0.6,3.4c0.4,1,0.9,1.9,1.6,2.7c0.7,0.8,1.5,1.3,2.5,1.8
				c1,0.4,2.1,0.6,3.4,0.6c0.6,0,1.2-0.1,1.8-0.2c0.6-0.1,1.1-0.3,1.6-0.5c0.5-0.2,1-0.4,1.4-0.7c0.4-0.3,0.8-0.5,1.2-0.8v-5.4h-6.3
				v-1.3h7.7v7.3C774,269.4,773,270.1,771.7,270.7z"/>
			<path class="st0" d="M795.7,271.2l-2.4-5.3h-11.1l-2.4,5.3h-1.5l8.8-19h1.3l8.8,19H795.7z M787.8,253.7l-5,10.9h9.9L787.8,253.7z
				"/>
			<path class="st0" d="M816.8,265.5c-0.5,1.2-1.2,2.1-2.1,3c-0.9,0.8-1.9,1.5-3.2,2s-2.6,0.7-4.1,0.7h-6.3v-18.9h6.3
				c1.5,0,2.8,0.2,4.1,0.7s2.3,1.1,3.2,2c0.9,0.8,1.6,1.8,2.1,3c0.5,1.1,0.7,2.4,0.7,3.7v0.1C817.5,263.1,817.3,264.3,816.8,265.5z
				 M816.1,261.7c0-1.1-0.2-2.2-0.6-3.2c-0.4-1-1-1.9-1.7-2.6c-0.7-0.7-1.6-1.3-2.7-1.8c-1.1-0.4-2.2-0.6-3.6-0.6h-4.9v16.3h4.9
				c1.3,0,2.5-0.2,3.6-0.6c1.1-0.4,2-1,2.7-1.7c0.7-0.7,1.3-1.6,1.7-2.6C815.9,264,816.1,262.9,816.1,261.7L816.1,261.7z"/>
			<path class="st0" d="M839.7,265.5c-0.5,1.2-1.1,2.2-1.9,3.1c-0.8,0.9-1.8,1.6-3,2.1c-1.2,0.5-2.5,0.8-3.9,0.8
				c-1.4,0-2.7-0.3-3.9-0.8c-1.2-0.5-2.2-1.2-3-2.1c-0.8-0.9-1.5-1.9-1.9-3.1c-0.4-1.2-0.7-2.4-0.7-3.7v-0.1c0-1.3,0.2-2.5,0.7-3.7
				c0.5-1.2,1.1-2.2,1.9-3.1c0.8-0.9,1.8-1.6,3-2.1c1.2-0.5,2.5-0.8,3.9-0.8c1.4,0,2.7,0.3,3.9,0.8c1.2,0.5,2.2,1.2,3,2.1
				c0.8,0.9,1.5,1.9,1.9,3.1c0.4,1.2,0.7,2.4,0.7,3.7c0,0,0,0,0,0.1C840.4,263,840.2,264.3,839.7,265.5z M839,261.7
				c0-1.2-0.2-2.3-0.6-3.3c-0.4-1-1-1.9-1.7-2.7c-0.7-0.8-1.6-1.4-2.5-1.8c-1-0.4-2.1-0.7-3.2-0.7c-1.2,0-2.2,0.2-3.2,0.7
				c-1,0.4-1.8,1-2.5,1.8c-0.7,0.8-1.3,1.7-1.7,2.7c-0.4,1-0.6,2.1-0.6,3.3v0.1c0,1.2,0.2,2.3,0.6,3.3c0.4,1,1,1.9,1.7,2.7
				c0.7,0.8,1.6,1.4,2.5,1.8c1,0.4,2.1,0.7,3.2,0.7c1.2,0,2.2-0.2,3.2-0.7c1-0.4,1.8-1,2.5-1.8c0.7-0.8,1.3-1.7,1.7-2.7
				S839,263,839,261.7L839,261.7z"/>
			<path class="st0" d="M857.2,268.4c-0.3,0.6-0.7,1.2-1.3,1.6c-0.5,0.4-1.2,0.8-2,1.1c-0.8,0.3-1.6,0.4-2.5,0.4
				c-1.5,0-2.9-0.3-4.1-0.8c-1.2-0.5-2.4-1.3-3.5-2.3l0.9-1.1c0.5,0.5,1,0.9,1.5,1.3c0.5,0.4,1,0.6,1.6,0.9c0.5,0.2,1.1,0.4,1.7,0.5
				c0.6,0.1,1.2,0.2,1.9,0.2c0.7,0,1.3-0.1,1.9-0.3s1.1-0.4,1.5-0.8c0.4-0.3,0.7-0.7,1-1.2c0.2-0.5,0.4-1,0.4-1.5v-0.1
				c0-0.5-0.1-1-0.2-1.3c-0.2-0.4-0.4-0.8-0.8-1.1c-0.4-0.3-0.9-0.6-1.6-0.9c-0.7-0.3-1.6-0.5-2.6-0.7c-1.1-0.2-2.1-0.5-2.9-0.8
				c-0.8-0.3-1.5-0.7-2-1.1c-0.5-0.4-0.9-0.9-1.1-1.5c-0.2-0.6-0.4-1.2-0.4-1.9V257c0-0.7,0.2-1.4,0.5-2c0.3-0.6,0.7-1.1,1.3-1.6
				c0.5-0.4,1.2-0.8,1.9-1.1c0.7-0.3,1.5-0.4,2.4-0.4c1.4,0,2.5,0.2,3.5,0.6c1,0.4,2,1,2.9,1.7l-0.9,1.1c-0.9-0.8-1.8-1.3-2.7-1.6
				c-0.9-0.3-1.9-0.5-2.9-0.5c-0.7,0-1.3,0.1-1.9,0.3c-0.6,0.2-1.1,0.4-1.5,0.8c-0.4,0.3-0.7,0.7-0.9,1.1c-0.2,0.4-0.3,0.9-0.3,1.4
				v0.1c0,0.5,0.1,1,0.2,1.4c0.2,0.4,0.4,0.8,0.8,1.1c0.4,0.3,1,0.6,1.7,0.9c0.7,0.3,1.6,0.5,2.7,0.8c2.2,0.4,3.8,1.1,4.7,1.9
				c1,0.8,1.5,1.9,1.5,3.3v0.1C857.7,267.1,857.5,267.8,857.2,268.4z"/>
		</g>
	</g>
	<g>
		<defs>
			<path id="SVGID_1_" d="M158.2,123.1c1.5-0.4,3.1-0.6,4.9-0.8c1.5-0.2,3-0.3,4.8-0.4c1.7-0.1,3.4-0.1,5-0.1
				c4.9-14.2,9.3-27.2,13.1-39.2c3.8-12,7-21,9.5-26.9c0.5-1.3,1.1-2.5,1.6-3.7c0.5-1.2,1.2-2.3,1.9-3.4c-2.5-0.4-4.7-0.7-6.5-1
				c-1.8-0.3-3.4-0.6-4.6-1c-3.3-0.4-6.8-0.9-10.6-1.6c-3.8-0.7-8.2-1.5-13.1-2.3c-4.9-0.8-10.4-1.6-16.6-2.4
				c-6.2-0.8-13.3-1.6-21.5-2.3c-10.3-0.7-19.8,0-28.3,2c-8.5,2.1-16.1,5.2-22.6,9.3c-6.5,4.1-12,8.9-16.3,14.6
				c-4.4,5.6-7.5,11.5-9.5,17.7c-2.7,8.5-3.2,15.6-1.5,21.2c1.7,5.6,3.7,9.9,5.9,12.8c0.5,0.9,0.5,1.8,0,2.6
				c-0.5,0.8-1.3,1.2-2.2,1.2c-3.6-0.4-6.9-1.4-9.7-3.1c-2.8-1.7-5.3-3.9-7.3-6.4c-2.1-2.5-3.7-5.3-4.9-8.3c-1.2-3-1.9-6-2-9.1
				c-0.2-2.5-0.2-5.9,0-9.9c0.2-4.1,1.3-8.5,3.3-13.2c2-4.7,5.2-9.6,9.7-14.6c4.4-5,10.7-9.7,18.9-14c8.3-4.5,17.4-7.3,27.1-8.4
				c9.7-1.1,19.9-1.2,30.5-0.4s21.6,2.3,32.9,4.5c11.3,2.2,23,4.2,35,6c6,0.9,11.7,1.5,17.1,1.6c4.5-6.5,9.2-10.8,13.9-12.9
				c4.7-2.1,8.6-3.3,11.7-3.7c0.9,0,1.5,0.4,1.9,1.1c0.4,0.7,0.3,1.5-0.3,2.2c-2.5,3.1-5,7.2-7.3,12.2c6.3-0.9,11.9-2.2,16.6-3.9
				c4.7-1.7,8.5-3.6,11.4-5.6c2-1.5,3.7-3.4,5.2-5.9c1.5-2.4,2.3-4.3,2.4-5.6c0.2-0.7,0.6-1,1.4-0.7c0.7,0.3,1.3,0.7,1.6,1.2
				c0.7,0.9,1.5,2,2.2,3.3c0.7,1.3,1.1,2.8,1.2,4.5c0.1,1.7-0.2,3.6-1,5.6c-0.7,2-2.1,4.1-4.1,6.3c-2.2,2.4-4.8,4.2-7.8,5.6
				c-3,1.4-6.3,2.4-9.9,3.1c-3.6,0.7-7.4,1.1-11.4,1.1c-4,0-7.9-0.2-11.7-0.5c-2.2,5.4-4.4,11.4-6.7,18c-2.3,6.5-4.5,13.4-6.7,20.7
				c-0.9,3.1-1.7,6.3-2.4,9.5c-0.7,2.7-1.5,5.7-2.3,9c-0.8,3.3-1.6,6.4-2.3,9.5c6.3-1.8,12.1-4.1,17.1-6.8c5.1-2.7,9.1-6.1,12-10.1
				c0.4-0.5,0.9-0.7,1.5-0.5c0.6,0.2,1,0.5,1,1.1c0.2,1.3,0.2,2.8,0,4.6c-0.2,1.8-0.8,3.7-1.9,5.6c-1.1,1.9-2.8,3.8-5,5.7
				c-2.3,1.9-5.3,3.7-9.1,5.3c-2.5,0.9-5.3,1.7-8.3,2.3c-3,0.6-6.2,1.1-9.7,1.5c-2.5,8.7-5.3,16.8-8.2,24.4
				c-2.9,7.5-5.6,14.2-8.2,20c-3.1,6.7-6.1,13-9,18.8c-5.8,10.3-12.4,18.5-19.9,24.4c-7.4,5.9-15.1,10.2-22.9,12.8
				c-7.8,2.6-15.4,3.9-22.7,3.9c-7.3,0-13.7-0.7-19.2-2.2c-3.6-0.9-6.8-2-9.4-3.1c-2.6-1.2-4.9-2.3-6.7-3.4c-2-1.1-3.8-2.3-5.4-3.5
				c-6.7-4.7-11.1-10.7-13.2-18.1c-2.1-7.4-2.7-15.1-1.8-23.3c0.9-8.2,2.9-16.2,6.1-24.2c3.2-8,6.7-15,10.5-21
				c5.1-8.3,11.2-16.2,18.5-23.5c7.3-7.3,14.9-13.5,23-18.5c8.1-5,16.3-8.4,24.6-10.2c8.3-1.8,16.1-1.4,23.4,1.4
				c2.7,1.3,4.7,3.6,6,7.1c1.1,3.1,1.6,7.3,1.6,12.8C162.5,106.5,161.1,113.8,158.2,123.1z M100.8,225.7c7.4-0.4,14.5-3.5,21.1-9.4
				c6.6-5.9,12.8-13.4,18.6-22.6c5.8-9.2,11.2-19.5,16.2-30.9c5-11.4,9.6-23,13.7-34.6c-2.5,0.4-5,0.7-7.5,1.1
				c-2.4,0.4-4.9,0.9-7.5,1.6c-3.6,9.4-7.6,17.5-12,24.2c-4.4,6.7-8.6,12.2-12.8,16.3c-4.2,4.2-8,7-11.4,8.6c-3.4,1.5-6.1,1.9-7.9,1
				c-1.1-0.5-2.3-1.9-3.7-4.1c-1.4-2.2-2.2-4.9-2.6-8c-0.4-3.2,0-6.8,1.2-10.8c1.2-4,3.8-8.1,7.8-12.2c4.2-4.4,9.2-8.4,15-12.1
				c5.8-3.7,12.5-6.6,20.1-8.6c2.9-5.4,4.9-10.3,5.9-14.7c1-4.4,1.4-8.1,1.2-11.3c-0.2-3.2-0.7-5.7-1.5-7.5
				c-0.8-1.8-1.7-2.9-2.6-3.3c-0.9-0.4-3.3-0.5-7.1-0.3c-3.8,0.2-8.8,2-14.8,5.4c-6.1,3.4-13.1,9.2-21,17.1
				c-7.9,8-16.5,19.6-25.7,34.8c-4.9,8.2-8.5,16.4-10.9,24.8c-1.1,3.6-2,7.3-2.6,11.2c-0.6,3.8-0.9,7.7-0.7,11.6
				c0.2,3.9,0.9,7.8,2,11.6c1.2,3.8,3,7.4,5.6,10.6c2.4,3.1,4.9,5.4,7.5,6.8c2.6,1.5,5.2,2.5,7.8,3C95.1,225.8,97.9,226,100.8,225.7
				z M142.9,135.6c-5.6,2.5-10.7,5.8-15.4,9.8c-4.6,4-8.5,8.8-11.6,14.4c2.4-0.5,5-1.8,7.9-3.8c2.5-1.6,5.4-4,8.6-7.2
				C135.6,145.6,139.1,141.2,142.9,135.6z"/>
		</defs>
		<clipPath id="SVGID_2_">
			<use xlink:href="#SVGID_1_"  style="overflow:visible;"/>
		</clipPath>
		<rect x="24.5" y="-17.7" class="st1" width="331.9" height="327.7"/>
	</g>
	<path class="st0" d="M365.7,129.8c-1.4-0.5-2.5-0.2-3.3,1.1c-1.3,2.5-2.7,5.3-4.3,8.4c-1.4,2.5-3.1,5.5-5,8.8
		c-1.9,3.3-3.9,6.7-6.1,10.2c-6.1,9.6-11.3,16.5-15.5,20.7c-4.2,4.2-7.6,7.1-10.3,8.5c-0.9,0.5-2.3,0.5-4.1-0.1
		c-1.8-0.6-3.4-2.3-4.9-5.1c-1.4-2.8-2.3-7-2.4-12.6c-0.2-5.6,1.1-13.2,3.8-22.8c2.5-9.6,5.6-17.5,9.1-23.9
		c3.5-6.3,6.8-11.5,9.9-15.4c3.6-4.7,7.3-8.4,11.1-11.1c0.5,1.4,0.7,2.9,0.5,4.5c-0.2,1.5-0.5,2.9-0.8,4.2c-0.4,0.7-0.3,1.3,0.3,1.8
		c0.5,0.5,1.2,0.7,1.9,0.7c2-0.4,3.7-0.9,5.2-1.5c1.4-0.6,2.5-1.3,3.3-2c1.8-1.8,2.9-3.6,3.3-5.3c0.4-1.7,0.4-3.3,0.3-4.7
		c-0.4-1.6-0.9-3.2-1.6-4.6c-1.4-1.8-3.4-2.9-6-3.3c-2.5-0.4-5.7,0.4-9.5,2.2c-3.8,1.8-8.4,4.9-13.7,9.2c-5.3,4.3-11.3,10.3-18,17.9
		c-6.7,7.6-11.5,14.9-14.5,22c-0.1,0.2-0.1,0.3-0.2,0.5c-0.2,0.5-0.5,0.9-0.7,1.4c-1.4,2.5-3.1,5.5-5,8.8c-1.9,3.3-3.9,6.7-6.1,10.2
		c-6,9.6-11.1,16.5-15.3,20.7c-4.2,4.2-7.7,7.1-10.4,8.5c-0.9-1.6-0.9-4.2,0-7.6c0.9-3.4,2.3-7.4,4.3-11.9c2-4.5,4.2-9.3,6.8-14.2
		c2.5-5,5-9.8,7.3-14.5c1.6-3.4,2.6-6.9,3-10.3c0.4-3.1,0-6.3-0.9-9.8c-1-3.4-3.3-6.7-6.9-9.8c-2.2-1.6-3.8-3-4.9-4.1
		c-0.7-0.7-1.3-1.4-1.6-1.9c-1.4-1.3-1.9-2.8-1.4-4.7c0.5-1.9,1.4-3.8,2.7-5.7c1.3-1.9,2.7-3.6,4.2-5.1c1.5-1.5,2.8-2.8,3.7-3.7
		c0.7-0.7,1-1.5,0.8-2.4c0-0.9-0.4-2.3-1.1-4.1c-1.1-2.2-2.7-3.7-4.7-4.7c-2.1-1-4.2-1.4-6.2-1.4c-2.1,0.1-4,0.8-5.8,2.2
		c-1.8,1.4-3.1,3.2-3.8,5.6c-0.9,2.5-1.3,4.9-1.2,7c0.1,2.2,0.3,4.2,0.7,6c0.5,2,1.2,4,1.9,6c-1.6,3.8-3.4,7.8-5.3,12.1
		c-1.9,4.2-3.7,8.1-5.4,11.7c-1.7,3.5-13.9,27.1-16.4,31.8c-0.5,1.3-0.2,2.4,1.1,3.3c1.3,0.7,2.3,0.4,3-1.1
		c1.8-3.1,13.4-25.4,14.8-28c1.4-2.6,2.8-5.7,4.5-9.2c1.6-3.5,3.3-7.2,4.9-11c3.1,1.4,5.2,2.9,6.2,4.5c1.1,1.5,1.7,3,1.9,4.5
		c0.2,1.6-0.1,3.2-0.8,4.6c-3.1,6.5-6.4,12.3-10,17.5c-3.6,5.1-7,11.4-10,18.8c-2.2,5.4-3.4,10.2-3.8,14.2
		c-0.4,4.1-0.2,7.5,0.5,10.3c0.7,2.8,1.9,5.1,3.4,6.8c1.5,1.7,3.1,2.8,4.7,3.4c1.8,0.9,3.5,1.4,5.2,1.4c0.7,0,1.8-0.2,3.3-0.5
		c8.9-2.5,19.3-13.4,31.4-32.5c1.1-1.7,2.2-3.5,3.2-5.2c0,0.6-0.1,1.1-0.1,1.7c-0.3,6.1,0.5,11.6,2.3,16.3c1.8,4.7,4.1,8.5,6.8,11.4
		c2.5,2.9,5.1,4.9,7.7,6.1c2.6,1.2,4.9,1.9,6.9,2.3c2.3,0.5,4.5,0.5,6.5,0c8.7-2.5,19.1-13.4,31.2-32.5c2.3-3.4,4.5-6.8,6.4-10.2
		c1.9-3.3,3.6-6.3,5-8.9c1.4-2.6,3-5.6,4.6-8.8C367.5,131.6,367.1,130.6,365.7,129.8z"/>
	<path class="st0" d="M487.4,34c-5,0.8-8.4,1.3-15.5,2.1c-7.1,0.8-15.9,1.9-27.8,4.5c-7.7,1.8-13,3.5-18.7,7
		c-5.7,3.4-10.4,7.3-14.3,11.7c-3.8,4.4-6.7,9.1-8.5,14.1c-1.8,5-2.8,10-2.8,14.9c0,3.4,0.3,6.4,1,9c0.7,2.6,1.6,4.9,2.7,6.8
		c1.1,1.9,2.3,3.5,3.5,4.7c1.2,1.2,2.4,2.3,3.5,3.1c0.7,0.4,0.9,1,0.7,1.7c-0.2,0.8-0.7,1.2-1.5,1.3c-2.6,0.5-5.1,0.5-7.6-0.1
		c-2.5-0.6-4.7-1.6-6.8-2.9c-2.1-1.3-3.8-2.9-5.3-4.8c-1.5-1.9-2.7-4-3.5-6.2c-0.7-1.8-1.4-4.2-2.2-7.2c-0.8-3-1-6.4-0.6-10.3
		c0.3-3.8,1.6-8,3.7-12.6c2.1-4.6,5.6-9.3,10.6-14.3c5.1-5.1,11-9.1,17.7-12.1c6.7-3,14-5.4,21.8-7.2c7.8-1.8,16.1-3.2,24.7-4.2
		c8.7-1,17.5-2.2,26.4-3.6c3.4-0.4,6.8-1,10.1-1.7c4.3-1,8.2-2.2,11.6-3.6c2.3-0.9,4.5-1.5,6.3-1.9c1.9-0.4,3.6-0.5,5-0.5
		c0.9,0,1.5,0.4,1.9,1.1c0.4,0.7,0.3,1.4-0.3,2.2c-3.1,3.2-6.2,8-9.3,14.3c-3.2,6.3-6.5,13.8-10.1,22.4c3.2-3.6,6.8-7.4,10.8-11.5
		c4-4,8.1-7.6,12.3-10.7c4.2-3.1,8.5-5.4,12.7-7c4.2-1.6,8.2-1.9,12-0.8c7,2.2,12.4,6.7,16.1,13.5c3.7,6.8,5.7,14.8,5.9,23.7
		c0.3,9-1.3,18.5-4.7,28.5c-3.4,10-8.7,19.3-15.9,27.9c-5.2,6.1-11.2,11.1-18.1,14.8c-6.8,3.8-13.9,6.5-21.3,8.1
		c-7.4,1.6-14.8,2.2-22.3,1.6c-7.5-0.5-14.4-2.1-20.9-4.6c4,12.1,8.5,22,13.8,29.7c5.2,7.7,10.7,13.8,16.3,18.2
		c5.7,4.4,11.3,7.4,17,9c5.7,1.6,11,2.5,16.1,2.6c5,0.1,9.5-0.4,13.5-1.3c4-1,7.1-1.9,9.4-2.8c1.1-0.4,2.2-0.3,3.2,0.3
		c1.1,0.5,1.8,1.4,2.2,2.7c1.1,5.2,0.1,10.3-2.8,15.1c-3,4.9-7.3,8.2-13,10.1c-5.7,1.9-12.5,1.6-20.5-0.9c-8-2.5-16.5-8.5-25.5-18.1
		c-8.3-8.8-15.2-18.3-20.6-28.3c-5.5-10.1-9.9-19.8-13.4-29.1c-2.7,5-5.2,9.4-7.4,13.1c-2.3,3.7-4.2,6.8-5.8,9.3
		c-2,3.1-3.8,5.6-5.4,7.6c-9,11.9-18.2,20.5-27.5,25.9c-9.4,5.4-18.4,8.7-27.3,10c-1.4,0.2-2.4-0.5-3-1.9c-0.5-1.4-0.1-2.5,1.3-3.2
		c6.8-4.1,13.7-10.4,20.5-18.9c6.8-8.5,13.4-18.1,19.8-28.9c6.4-10.8,12.5-22.1,18.4-34c5.8-11.9,11.2-23.3,16.1-34.1
		c4.9-10.9,9.2-20.7,13.1-29.6c3.9-8.8,7-15.6,9.3-20.2c1.6-3.2,3.3-6.1,5.1-8.5c1.8-2.4,3.6-4.5,5.4-6.3c-2,0.4-3.7,0.5-5.1,0.7
		C491.9,33.4,488.5,33.8,487.4,34z M497,78.7c-1.4,4.1-3,8.3-4.6,12.5c-1.6,4.2-3.2,8.6-4.9,13.1c-2.5,6.8-5.1,13.3-7.8,19.3
		c-2.7,6-5.3,11.7-7.8,16.9c7.4,2.7,14.3,3.7,20.6,3c6.4-0.7,12.3-2.5,17.7-5.3c5.4-2.8,10.3-6.3,14.6-10.7
		c4.3-4.3,8.1-8.8,11.3-13.5c3.2-4.7,5.8-9.3,7.8-13.8c2-4.5,3.4-8.3,4.3-11.3c0.7-2.2,1.5-5,2.3-8.6c0.8-3.6,1.4-7.4,1.9-11.3
		c0.4-4,0.6-8,0.5-12c-0.1-4-0.6-7.6-1.5-10.5c-0.9-3-2.3-5.2-4.2-6.7c-1.9-1.5-4.5-1.8-7.7-0.9c-4.9,1.3-9.5,3.6-13.9,7
		c-4.4,3.4-8.5,7.2-12.3,11.3c-3.8,4.1-7.1,8.2-10,12.1C500.6,73.2,498.4,76.3,497,78.7z"/>
	<path class="st0" d="M624.4,86c3.4,2.9,6,6.9,7.8,12.1c1.4,4.5,2,10.4,1.8,17.8c-0.3,7.4-2.5,16.6-6.6,27.5
		c-4.5,11.7-9.3,20.8-14.4,27.4c-5.1,6.6-9.9,11.4-14.4,14.4c-5.2,3.8-10.5,6-15.9,6.7c-2,0.5-4,0.5-6.2,0c-2-0.4-4.1-1.1-6.3-2.3
		c-2.3-1.2-4.5-3.2-6.9-6.1c-2.3-2.9-4.1-7-5.4-12.4c-1.3-5.4-1.5-11.5-0.7-18.4c0.8-6.8,2.8-14.1,6.1-21.7
		c3.2-7.6,8.3-15.2,15.1-22.8c5.4-5.9,10.1-10.7,14.2-14.3c4-3.6,7.7-6.2,10.9-8c3.2-1.7,6.1-2.7,8.6-3.1c2.5-0.4,4.8-0.3,6.7,0.3
		C621.1,83.8,622.9,84.7,624.4,86z M618.2,142.6c2.2-5.8,4-11.5,5.4-17.1c1.4-5.7,2.4-10.8,2.8-15.5c0.4-4.7,0.4-8.6,0-11.7
		c-0.5-3.1-1.4-5.1-2.8-5.8c-1.4-0.5-2.9-0.7-4.3-0.4c-1.4,0.3-2.9,0.7-4.3,1.2c-1.6,0.7-3.2,1.5-4.6,2.4
		c-3.8,2.7-7.5,6.4-11.1,11.1c-3.1,4-6.4,9.1-10,15.4c-3.6,6.3-6.9,14.2-10,23.7c-2.9,9-4.5,16.2-4.7,21.7
		c-0.3,5.5,0.1,9.6,1.2,12.4c1.1,2.8,2.5,4.6,4.3,5.4c1.8,0.8,3.2,1.1,4.3,0.9c3.8-0.4,7.2-1.8,10.4-4.3c3.1-2.5,6.1-5.7,8.8-9.6
		c2.7-3.9,5.2-8.4,7.6-13.5C613.5,153.8,615.8,148.4,618.2,142.6z"/>
	<g>
		<defs>
			<path id="SVGID_3_" d="M856.3,127.9c-1.3-0.7-2.3-0.4-3,1.1c-1.4,2.5-3,5.3-4.6,8.4c-1.4,2.5-3.1,5.4-5,8.8
				c-1.9,3.3-3.9,6.7-6.1,10.1c-5.9,9.5-11,16.4-15.2,20.6c-4.2,4.2-7.7,7.1-10.4,8.5c-0.9-1.6-0.9-4.1,0-7.6
				c0.9-3.4,2.3-7.4,4.3-11.9c2-4.5,4.2-9.2,6.7-14.2c2.5-4.9,4.9-9.8,7.3-14.4c1.6-3.4,2.6-6.8,3-10.3c0.4-3.1,0-6.3-0.9-9.7
				c-1-3.4-3.3-6.7-6.9-9.7c-2.2-1.6-3.8-3-4.9-4c-0.7-0.7-1.3-1.3-1.6-1.9c-1.4-1.3-1.9-2.8-1.3-4.7c0.5-1.9,1.4-3.8,2.7-5.7
				c1.3-1.9,2.7-3.6,4.2-5.1c1.5-1.5,2.7-2.7,3.6-3.6c0.7-0.7,1-1.5,0.8-2.4c0-0.9-0.4-2.2-1.1-4c-1.1-2.2-2.7-3.7-4.7-4.7
				c-2.1-1-4.1-1.4-6.2-1.3c-2.1,0.1-4,0.8-5.8,2.2c-1.8,1.3-3.1,3.2-3.8,5.5c-0.9,2.5-1.3,4.9-1.2,7c0.1,2.2,0.3,4.1,0.7,5.9
				c0.5,2,1.2,4,1.9,5.9c-1.6,3.8-3.4,7.8-5.3,12c-1.9,4.2-3.7,8.1-5.4,11.6c-1.7,3.5-3.8,7.6-6.3,12.3c-0.1,0.3-0.2,0.5-0.2,0.7
				c-0.7,1.3-1.5,2.7-2.2,4.1c-1.4,2.5-3.1,5.4-4.9,8.8c-1.8,3.3-3.8,6.7-5.9,10.1c-6.1,9.5-11.3,16.4-15.5,20.6
				c-4.2,4.2-7.6,7.1-10.1,8.5c-0.7,0.4-1.8,0.4-3.4,0c-1.5-0.4-3-1.4-4.3-3.1c-1.3-1.7-2.4-4.4-3.1-8c-0.7-3.6-0.7-8.4,0-14.3
				c0.2-1.8,0.5-3.9,1.1-6.2c0.5-2.3,1.1-4.5,1.6-6.5c0.7-2.3,1.3-4.8,1.9-7.3c8.8-2,16.1-4.5,21.7-7.4c5.7-3,10.2-6.2,13.5-9.7
				c3.3-3.5,5.7-7.1,7-10.7c1.3-3.6,2.1-7,2.2-10.3c0.1-3.2-0.3-6.1-1.1-8.6c-0.8-2.5-1.7-4.4-2.6-5.7c-1.4-1.8-3.4-2.9-5.9-3.2
				c-2.5-0.4-5.7,0.4-9.4,2.2c-3.8,1.8-8.3,4.9-13.6,9.2c-5.3,4.3-11.3,10.3-17.9,17.8c-6.7,7.6-11.5,14.8-14.4,21.9
				c-0.1,0.2-0.1,0.3-0.2,0.5c-0.2,0.5-0.5,0.9-0.7,1.4c-1.4,2.5-3.1,5.4-4.9,8.8c-1.8,3.3-3.8,6.7-5.9,10.1
				c-6.1,9.5-11.3,16.4-15.5,20.6c-4.2,4.2-7.6,7.1-10.1,8.5c-1.1-2.2-0.7-5.8,1.1-10.9c1.8-5.1,4.2-10.8,7.2-17.1
				c3-6.3,6.1-12.6,9.4-19c3.3-6.4,6-11.9,8-16.6c2.2-4.9,3.2-9.3,3.1-13.2c-0.1-4-0.7-7.4-1.9-10.4c-1.2-3-2.6-5.4-4.3-7.4
				c-1.7-2-3-3.4-3.9-4.3c-1.1-0.9-2.1-1.2-3-0.8c-0.9,0.5-1.4,1.1-1.6,1.6c-0.2,0.4-0.3,0.7-0.3,1.1c-0.5,6.5-1.6,12.2-3.1,17.1
				c-1.5,5-3.3,9.5-5.4,13.8c-2.1,4.2-4.4,8.3-6.9,12.1c-2.5,3.9-5,7.9-7.3,12c-1.3,2-2.5,4-3.8,6.2c-1.3,2.2-2.6,4.4-4,6.7
				c-6.1,9.5-11.4,16.4-15.9,20.6c-4.5,4.2-8.1,7.1-10.8,8.5c-1.1-2.2-0.7-5.8,1.1-10.9c1.8-5.1,4.2-10.8,7.3-17.1
				c3.1-6.3,6.2-12.6,9.6-19c3.3-6.4,6-11.9,8-16.6c2.2-4.9,3.1-9.3,3-13.2c-0.2-4-0.9-7.4-2-10.4c-1.2-3-2.6-5.4-4.2-7.4
				c-1.6-2-2.9-3.4-3.8-4.3c-1.3-0.9-2.3-1.2-3-0.8c-0.9,0.5-1.4,1.1-1.6,1.6c-0.2,0.4-0.3,0.7-0.3,1.1c-0.5,7.9-1.9,14.7-4,20.4
				c-2.2,5.7-4.7,11-7.6,16.1c-2.9,5-5.8,10-8.9,14.8c-3.1,4.9-5.8,10.3-8.4,16.2c-2.2,5.4-3.4,10.1-3.8,14.2
				c-0.4,4-0.2,7.5,0.5,10.3c0.7,2.8,1.8,5,3.4,6.7c1.5,1.7,3.1,2.8,4.7,3.4c1.8,0.9,3.5,1.3,5.1,1.3c0.7,0,1.8-0.2,3.2-0.5
				c3.6-0.9,7.6-3.3,12-7.2c4.4-3.9,9-9.2,13.9-16.1c-1.3,4.7-3.2,11.1-5.7,19.3c-2.5,8.2-5.6,16.9-9.2,26
				c-7.4-0.4-14.2-0.1-20.5,0.8c-13.7,2-24.4,6.8-32.1,14.6c-4.7,5-7.8,10.6-9.4,16.7c-1.6,5.8-1.6,11.3,0,16.7
				c1.6,6.3,6,10.5,13.2,12.7c2.2,0.7,4.4,1.1,6.7,1.1h3c4.9-0.2,9.7-1.9,14.6-5.3c4.9-3.3,9.6-7.6,14.2-12.8
				c4.6-5.2,8.9-11.2,13.1-17.8c4.1-6.7,8-13.5,11.6-20.5c2.9,0.5,5.8,1.2,8.6,1.9c2.5,0.5,5,1.1,7.6,1.8c2.5,0.6,4.8,1.2,6.7,1.8
				c3.6,1.1,7,1.9,10.1,2.6c3.1,0.6,5.9,1.1,8.2,1.5c2.7,0.5,5.1,0.8,7.3,0.8c6.3,0.5,11.4,0.3,15.4-0.8c4-1.1,7-2.4,9.2-4
				c2.2-1.6,3.6-3.4,4.2-5.3c0.6-1.9,0.9-3.4,0.7-4.5c-0.2-1.1-0.7-1.4-1.5-1.1c-0.8,0.4-2.2,1-4,1.9c-1.9,0.9-4.5,1.9-7.8,3
				c-3.3,1.1-7.7,1.9-13.1,2.4c-4.7,0.4-9.6,0.5-14.7,0.4c-5.1-0.1-10.2-0.8-15.2-2c-1.8-0.4-3.8-0.9-5.9-1.5
				c-2.2-0.6-4.2-1.1-6.2-1.5c-2.3-0.5-4.8-1-7.3-1.3c2.2-4.1,4.2-8.3,6.1-12.4c1.9-4.1,3.6-8,5-11.6c0.4,0,0.6,0,0.7,0.1
				c0.1,0.1,0.3,0.1,0.7,0.1c0.5,0,1.1,0,1.6-0.1c0.5-0.1,1.2-0.2,1.9-0.4c8.6-2.5,19-13.3,31-32.4c1.1-1.7,2.2-3.5,3.2-5.2
				c0,0.6-0.1,1.1-0.1,1.7c-0.3,6.1,0.5,11.5,2.2,16.2c1.7,4.7,3.9,8.5,6.6,11.3c2.5,2.9,5.1,4.9,7.7,6.1c2.6,1.2,4.9,1.9,6.9,2.3
				c2.3,0.5,4.6,0.5,6.7,0c8.6-2.5,19-13.3,31-32.4c2.2-3.4,4.2-6.8,6.2-10.1c2-3.3,3.6-6.3,5-8.9c1.3-2.6,2.8-5.5,4.4-8.7
				c0.9-1.7,1.8-3.3,2.6-4.8c1.3-2.6,2.8-5.7,4.5-9.2c1.6-3.5,3.2-7.2,4.9-10.9c3.1,1.4,5.1,2.9,6.2,4.5c1.1,1.5,1.7,3,1.9,4.5
				c0.2,1.6-0.1,3.2-0.8,4.6c-3.1,6.5-6.4,12.3-10,17.4c-3.6,5.1-6.9,11.4-10,18.8c-2.2,5.4-3.4,10.1-3.8,14.2
				c-0.4,4-0.2,7.5,0.5,10.3c0.7,2.8,1.8,5,3.4,6.7c1.5,1.7,3.1,2.8,4.7,3.4c1.8,0.9,3.5,1.3,5.1,1.3c0.7,0,1.8-0.2,3.2-0.5
				c8.8-2.5,19.3-13.3,31.3-32.4c2.2-3.4,4.2-6.8,6.2-10.1c2-3.3,3.6-6.3,5-8.9c1.3-2.6,2.8-5.5,4.5-8.8
				C858.1,129.6,857.7,128.6,856.3,127.9z M757.5,115.2c3.1-4.9,5.9-8.8,8.6-11.9c3.1-3.4,6.1-6.3,9.2-8.6c0.2,0.9,0.2,1.9,0.1,3.1
				c-0.1,1.2-0.2,2.5-0.4,3.9c-0.2,1.6-0.5,3.2-0.8,4.9c-1.3,4.1-3,7.7-5.1,10.8c-2.2,3.1-4.5,5.7-6.9,7.8c-2.4,2.2-4.9,3.9-7.3,5.3
				c-2.4,1.3-4.5,2.4-6.1,3.1C751.6,126.1,754.4,120,757.5,115.2z M644.1,237.7c-3.2,6.5-6.6,12.2-10.1,17.1
				c-3.5,4.9-7.1,8.9-10.8,12c-3.7,3.1-7.4,4.5-11.2,4.3c-0.7-0.2-1.5-0.3-2.4-0.4c-0.9-0.1-1.8-0.3-2.7-0.7
				c-5.4-1.6-8.7-4.8-10-9.4c-1.4-4.5-1.4-9.3,0-14.3c1.3-5.2,4-10.1,8.4-14.6c1.6-1.6,3.8-3.3,6.5-5.1c2.7-1.8,5.9-3.4,9.7-4.9
				c3.8-1.4,8.3-2.6,13.5-3.4c5.2-0.8,11.2-1,18.1-0.7C650.4,224.6,647.4,231.2,644.1,237.7z"/>
		</defs>
		<use xlink:href="#SVGID_3_"  style="overflow:visible;fill:#FFFFFF;"/>
		<clipPath id="SVGID_4_">
			<use xlink:href="#SVGID_3_"  style="overflow:visible;"/>
		</clipPath>
	</g>
</g>
</svg>
